<svg width="59" height="59" viewBox="0 0 59 59" fill="none" xmlns="http://www.w3.org/2000/svg">
<g clip-path="url(#clip0_178_221)">
<path d="M49.9965 49.9662C61.3163 38.6463 61.3163 20.2932 49.9965 8.97331C38.6766 -2.34656 20.3235 -2.34658 9.00359 8.97328C-2.31628 20.2931 -2.31625 38.6463 9.00362 49.9662C20.3235 61.286 38.6766 61.286 49.9965 49.9662Z" fill="white"/>
<path d="M27.7498 42.1373C27.7497 41.9107 27.6977 41.6869 27.5972 41.4817C27.4968 41.2766 27.3505 41.0951 27.1686 40.9501C26.9867 40.8051 26.7738 40.7002 26.5449 40.6428C26.316 40.5854 26.0767 40.5769 25.8439 40.6179C23.7317 40.9891 21.0648 41.0449 20.3557 39.1378C19.7374 37.6607 18.7132 36.3714 17.3918 35.4065C17.2975 35.3574 17.2076 35.3009 17.1231 35.2375C17.0075 34.9454 16.8021 34.6937 16.534 34.5156C16.2659 34.3376 15.9477 34.2415 15.6215 34.2402H15.6136C15.187 34.24 14.7777 34.4017 14.4753 34.6899C14.1729 34.978 14.002 35.3692 14.0001 35.7777C13.9937 37.0375 15.3086 37.8448 15.8421 38.1179C16.4711 38.723 16.9766 39.4353 17.3327 40.2181C17.9204 41.7994 19.6285 44.1984 24.5385 43.8892C24.5401 43.9435 24.5416 43.9948 24.5424 44.0415L24.5495 44.455C24.5495 44.8647 24.7195 45.2577 25.0221 45.5475C25.3247 45.8372 25.7351 46 26.163 46C26.591 46 27.0014 45.8372 27.304 45.5475C27.6066 45.2577 27.7766 44.8647 27.7766 44.455L27.7687 43.9631C27.7608 43.6703 27.7498 43.2463 27.7498 42.1373ZM44.9614 18.7671C45.0126 18.5739 45.063 18.3597 45.1071 18.1183C45.3681 16.3965 45.1406 14.6391 44.4485 13.0305C44.3611 12.8207 44.2269 12.6319 44.0553 12.477C43.8837 12.3222 43.6788 12.2052 43.455 12.1342C42.8806 11.9486 40.7597 11.5835 36.7038 14.0655C33.3324 13.3058 29.8228 13.3058 26.4514 14.0655C22.412 11.6199 20.3021 11.9517 19.7333 12.1268C19.504 12.1949 19.2934 12.3112 19.1172 12.4674C18.9409 12.6235 18.8033 12.8154 18.7146 13.0291C18.0084 14.6686 17.7833 16.4618 18.0638 18.2149C18.1032 18.4125 18.1458 18.5951 18.1899 18.7626C16.8532 20.4674 16.1412 22.5469 16.1643 24.6787C16.1599 25.1543 16.1828 25.6298 16.2328 26.103C16.7718 33.2141 21.6124 35.3491 24.9852 36.0824C24.9151 36.2755 24.8512 36.4822 24.7945 36.701C24.6934 37.0986 24.7611 37.5183 24.9826 37.8681C25.2042 38.2179 25.5617 38.4694 25.9765 38.5672C26.3914 38.6651 26.8299 38.6014 27.1959 38.3902C27.5618 38.1789 27.8253 37.8374 27.9286 37.4403C28.0313 36.9256 28.2944 36.4526 28.6834 36.0839C28.9186 35.8868 29.0889 35.6284 29.1735 35.3403C29.2582 35.0522 29.2536 34.7467 29.1602 34.461C29.0669 34.1754 28.8889 33.9218 28.6479 33.7313C28.4068 33.5407 28.1132 33.4213 27.8026 33.3876C22.2292 32.7781 19.8097 30.6039 19.4457 25.8194C19.4054 25.4404 19.3873 25.0596 19.3914 24.6787C19.3655 23.1594 19.8897 21.6784 20.8749 20.4872C20.9739 20.363 21.0793 20.2436 21.1908 20.1296C21.3884 19.9179 21.5212 19.6582 21.5747 19.379C21.6282 19.0998 21.6004 18.8119 21.4942 18.5468C21.3853 18.268 21.3015 17.9808 21.2437 17.6883C21.1122 16.8566 21.1553 16.0082 21.3705 15.1927C22.7729 15.572 24.0927 16.1893 25.2672 17.0153C25.4614 17.1392 25.6812 17.2217 25.9116 17.2571C26.142 17.2925 26.3776 17.28 26.6026 17.2206C29.8637 16.3731 33.3019 16.3736 36.5627 17.2221C36.7889 17.2815 37.0258 17.2932 37.2572 17.2565C37.4885 17.2198 37.7088 17.1355 37.9028 17.0094C39.0718 16.1799 40.3861 15.557 41.7839 15.1701C41.9981 15.966 42.046 16.7946 41.9249 17.6084C41.8664 17.929 41.7751 18.2434 41.6523 18.5469C41.5461 18.8119 41.5182 19.0998 41.5717 19.379C41.6252 19.6583 41.7581 19.9179 41.9556 20.1296C42.0801 20.2639 42.2046 20.4087 42.3164 20.5445C43.2947 21.7155 43.81 23.1796 43.7717 24.6787C43.7746 25.0798 43.7543 25.4807 43.711 25.8797C43.3557 30.6008 40.9267 32.7766 35.3274 33.3876C35.0167 33.4215 34.723 33.5411 34.482 33.7318C34.241 33.9226 34.0631 34.1763 33.9698 34.4621C33.8766 34.7479 33.8721 35.0534 33.9569 35.3416C34.0417 35.6298 34.2121 35.8882 34.4474 36.0854C34.8485 36.464 35.1123 36.9558 35.1998 37.4886C35.3088 37.9022 35.3589 38.3281 35.3487 38.7545V42.3606C35.3329 43.361 35.3329 44.1109 35.3329 44.4549C35.3329 44.8646 35.5029 45.2576 35.8055 45.5474C36.1081 45.8371 36.5185 45.9999 36.9464 45.9999C37.3744 45.9999 37.7848 45.8371 38.0874 45.5474C38.39 45.2576 38.56 44.8646 38.56 44.4549C38.56 44.1199 38.56 43.3851 38.5757 42.3848V38.7545C38.5887 38.0714 38.5047 37.3897 38.326 36.7282C38.2749 36.511 38.2123 36.2965 38.1385 36.0854C40.5931 35.695 42.8233 34.4831 44.4322 32.6657C46.0412 30.8482 46.9244 28.543 46.9247 26.1604C46.9778 25.6682 47.0026 25.1735 46.9988 24.6787C47.0346 22.5446 46.3166 20.4615 44.9613 18.7671L44.9614 18.7671Z" fill="#371B0F"/>
</g>
<defs>
<clipPath id="clip0_178_221">
<rect width="57.9727" height="57.9727" fill="white" transform="translate(0.513702 0.483398)"/>
</clipPath>
</defs>
</svg>
