<svg width="43" height="42" viewBox="0 0 43 42" fill="none" xmlns="http://www.w3.org/2000/svg">
<g clip-path="url(#clip0_677_1823)">
<path d="M21.6796 41.432C32.9651 41.1207 41.8615 31.7197 41.5502 20.4342C41.2389 9.14865 31.8378 0.252266 20.5523 0.563556C9.26682 0.874847 0.370454 10.2759 0.681745 21.5614C0.993035 32.8469 10.3941 41.7433 21.6796 41.432Z" fill="#040804"/>
<path d="M21.1052 11.4004C18.4988 11.4004 18.1724 11.4116 17.1484 11.458C16.3518 11.4741 15.5635 11.6251 14.8172 11.9044C14.1806 12.1518 13.6026 12.5293 13.1202 13.0128C12.6378 13.4963 12.2616 14.0752 12.0156 14.7124C11.7365 15.4582 11.5856 16.2458 11.5692 17.042C11.5228 18.066 11.5116 18.394 11.5116 21.0004C11.5116 23.6068 11.5228 23.9348 11.5692 24.9588C11.5856 25.7549 11.7365 26.5426 12.0156 27.2884C12.2621 27.926 12.639 28.5052 13.1223 28.9888C13.6056 29.4723 14.1845 29.8496 14.822 30.0964C15.5683 30.3757 16.3566 30.5266 17.1532 30.5428C18.1772 30.5892 18.5036 30.6004 21.11 30.6004C23.7164 30.6004 24.0444 30.5892 25.0684 30.5428C25.8646 30.5268 26.6524 30.3759 27.398 30.0964C28.036 29.8499 28.6153 29.4728 29.0989 28.9892C29.5825 28.5056 29.9596 27.9263 30.206 27.2884C30.4852 26.5426 30.6361 25.7549 30.6524 24.9588C30.6988 23.9348 30.71 23.6068 30.71 21.0004C30.71 18.394 30.6988 18.066 30.6524 17.042C30.6361 16.2458 30.4852 15.4582 30.206 14.7124C29.9596 14.0745 29.5825 13.4951 29.0989 13.0115C28.6153 12.528 28.036 12.1508 27.398 11.9044C26.6524 11.6249 25.8646 11.474 25.0684 11.458C24.0396 11.4116 23.7132 11.4004 21.1052 11.4004ZM21.1052 13.13C23.6652 13.13 23.9724 13.1396 24.9852 13.186C25.5939 13.1936 26.1968 13.3057 26.7676 13.5172C27.1814 13.6771 27.5573 13.9216 27.8711 14.2352C28.1849 14.5487 28.4298 14.9243 28.59 15.338C28.8014 15.9094 28.9129 16.5128 28.9196 17.122C28.966 18.1332 28.9756 18.4372 28.9756 21.0004C28.9756 23.5636 28.966 23.8676 28.9196 24.8788C28.9129 25.488 28.8014 26.0914 28.59 26.6628C28.4298 27.0764 28.1849 27.4521 27.8711 27.7656C27.5573 28.0792 27.1814 28.3237 26.7676 28.4836C26.1968 28.6951 25.5939 28.8071 24.9852 28.8148C23.9724 28.8612 23.67 28.8708 21.1052 28.8708C18.5404 28.8708 18.2396 28.8612 17.2268 28.8148C16.6181 28.8071 16.0153 28.6951 15.4444 28.4836C15.0295 28.3244 14.6524 28.0802 14.3374 27.7667C14.0225 27.4531 13.7766 27.0771 13.6156 26.6628C13.4043 26.0914 13.2928 25.488 13.286 24.8788C13.2396 23.8676 13.23 23.5636 13.23 21.0004C13.23 18.4372 13.2396 18.1332 13.286 17.122C13.2928 16.5128 13.4043 15.9094 13.6156 15.338C13.7759 14.9243 14.0208 14.5487 14.3346 14.2352C14.6484 13.9216 15.0242 13.6771 15.438 13.5172C16.0089 13.3057 16.6117 13.1936 17.2204 13.186C18.2332 13.1396 18.5356 13.13 21.0988 13.13" fill="#E8E8EE"/>
<path d="M21.1052 24.2004C20.4723 24.2004 19.8537 24.0127 19.3274 23.6611C18.8012 23.3095 18.391 22.8097 18.1488 22.225C17.9066 21.6403 17.8433 20.9969 17.9667 20.3761C18.0902 19.7554 18.395 19.1852 18.8425 18.7377C19.29 18.2901 19.8602 17.9854 20.481 17.8619C21.1017 17.7384 21.7451 17.8018 22.3298 18.044C22.9146 18.2862 23.4143 18.6963 23.766 19.2226C24.1176 19.7488 24.3052 20.3675 24.3052 21.0004C24.3052 21.8491 23.9681 22.663 23.368 23.2631C22.7679 23.8633 21.9539 24.2004 21.1052 24.2004ZM21.1052 16.0708C20.1303 16.0708 19.1772 16.3599 18.3665 16.9016C17.5558 17.4433 16.924 18.2132 16.5509 19.1139C16.1778 20.0147 16.0802 21.0059 16.2704 21.9621C16.4606 22.9184 16.9301 23.7967 17.6195 24.4862C18.3089 25.1756 19.1873 25.6451 20.1435 25.8353C21.0998 26.0255 22.091 25.9279 22.9917 25.5548C23.8925 25.1817 24.6624 24.5498 25.2041 23.7391C25.7457 22.9285 26.0348 21.9754 26.0348 21.0004C26.0348 19.693 25.5155 18.4391 24.591 17.5146C23.6665 16.5902 22.4127 16.0708 21.1052 16.0708Z" fill="#E8E8EE"/>
<path d="M27.3756 15.8756C27.3756 16.1035 27.3081 16.3262 27.1815 16.5157C27.0549 16.7051 26.875 16.8527 26.6645 16.9399C26.454 17.0271 26.2224 17.05 25.9989 17.0055C25.7754 16.9611 25.5702 16.8513 25.4091 16.6902C25.248 16.5291 25.1382 16.3239 25.0938 16.1004C25.0493 15.8769 25.0721 15.6453 25.1593 15.4348C25.2465 15.2243 25.3942 15.0444 25.5836 14.9178C25.7731 14.7912 25.9958 14.7236 26.2236 14.7236C26.5292 14.7236 26.8222 14.845 27.0382 15.0611C27.2543 15.2771 27.3756 15.5701 27.3756 15.8756Z" fill="#E8E8EE"/>
</g>
<defs>
<clipPath id="clip0_677_1823">
<rect width="41.9957" height="41.9957" fill="white" transform="translate(0.118103)"/>
</clipPath>
</defs>
</svg>
