<svg width="59" height="59" viewBox="0 0 59 59" fill="none" xmlns="http://www.w3.org/2000/svg">
<g clip-path="url(#clip0_178_198)">
<path d="M30.7232 57.7062C46.2932 57.2767 58.5671 44.3065 58.1376 28.7365C57.7082 13.1664 44.738 0.892509 29.1679 1.32198C13.5979 1.75145 1.32399 14.7217 1.75346 30.2917C2.18293 45.8618 15.1531 58.1356 30.7232 57.7062Z" fill="white"/>
<path d="M29.6428 13C25.1213 13 24.555 13.0194 22.7786 13.0999C21.3965 13.128 20.0292 13.3898 18.7345 13.8743C17.6301 14.3035 16.6274 14.9584 15.7905 15.7972C14.9536 16.636 14.301 17.6402 13.8743 18.7456C13.39 20.0394 13.1282 21.4058 13.0999 22.7869C13.0194 24.5633 13 25.1324 13 29.6539C13 34.1755 13.0194 34.7445 13.0999 36.5209C13.1282 37.902 13.39 39.2684 13.8743 40.5622C14.3019 41.6684 14.9558 42.6731 15.7942 43.512C16.6325 44.3508 17.6369 45.0053 18.7428 45.4335C20.0375 45.918 21.4049 46.1798 22.7869 46.2079C24.5634 46.2884 25.1296 46.3078 29.6511 46.3078C34.1727 46.3078 34.7417 46.2884 36.5181 46.2079C37.8993 46.1802 39.2658 45.9183 40.5595 45.4335C41.6661 45.0059 42.6711 44.3517 43.51 43.5128C44.3489 42.6739 45.0032 41.6689 45.4307 40.5622C45.915 39.2684 46.1768 37.902 46.2051 36.5209C46.2856 34.7445 46.3051 34.1755 46.3051 29.6539C46.3051 25.1324 46.2856 24.5633 46.2051 22.7869C46.1768 21.4058 45.915 20.0394 45.4307 18.7456C45.0032 17.6389 44.3489 16.6339 43.51 15.795C42.6711 14.9561 41.6661 14.3019 40.5595 13.8743C39.2658 13.3895 37.8993 13.1276 36.5181 13.0999C34.7334 13.0194 34.1671 13 29.6428 13ZM29.6428 16.0005C34.0839 16.0005 34.6168 16.0171 36.3738 16.0976C37.4297 16.1109 38.4756 16.3052 39.4659 16.6722C40.1837 16.9495 40.8357 17.3738 41.3801 17.9177C41.9245 18.4616 42.3493 19.1133 42.6273 19.8309C42.994 20.8221 43.1874 21.8689 43.1991 22.9257C43.2796 24.6799 43.2962 25.2073 43.2962 29.6539C43.2962 34.1005 43.2796 34.6279 43.1991 36.3821C43.1874 37.4389 42.994 38.4857 42.6273 39.4769C42.3493 40.1945 41.9245 40.8462 41.3801 41.3901C40.8357 41.9341 40.1837 42.3583 39.4659 42.6356C38.4756 43.0026 37.4297 43.1969 36.3738 43.2102C34.6168 43.2907 34.0922 43.3073 29.6428 43.3073C25.1934 43.3073 24.6716 43.2907 22.9146 43.2102C21.8587 43.1969 20.8128 43.0026 19.8226 42.6356C19.1026 42.3596 18.4485 41.9359 17.9021 41.3919C17.3557 40.8479 16.9292 40.1956 16.65 39.4769C16.2833 38.4857 16.0899 37.4389 16.0782 36.3821C15.9977 34.6279 15.981 34.1005 15.981 29.6539C15.981 25.2073 15.9977 24.6799 16.0782 22.9257C16.0899 21.8689 16.2833 20.8221 16.65 19.8309C16.928 19.1133 17.3528 18.4616 17.8972 17.9177C18.4416 17.3738 19.0936 16.9495 19.8115 16.6722C20.8017 16.3052 21.8476 16.1109 22.9035 16.0976C24.6605 16.0171 25.1851 16.0005 29.6317 16.0005" fill="#371B0F"/>
<path d="M29.6428 35.2047C28.5448 35.2047 27.4716 34.8791 26.5587 34.2691C25.6457 33.6591 24.9342 32.7921 24.5141 31.7777C24.0939 30.7634 23.984 29.6472 24.1982 28.5703C24.4124 27.4935 24.9411 26.5043 25.7174 25.728C26.4938 24.9516 27.4829 24.4229 28.5598 24.2087C29.6366 23.9945 30.7528 24.1044 31.7672 24.5246C32.7815 24.9448 33.6485 25.6563 34.2585 26.5692C34.8685 27.4821 35.1941 28.5554 35.1941 29.6534C35.1941 31.1257 34.6092 32.5376 33.5682 33.5787C32.5271 34.6198 31.1151 35.2047 29.6428 35.2047ZM29.6428 21.1016C27.9514 21.1016 26.298 21.6031 24.8917 22.5428C23.4853 23.4825 22.3892 24.8181 21.742 26.3807C21.0947 27.9434 20.9254 29.6628 21.2553 31.3217C21.5853 32.9806 22.3998 34.5044 23.5958 35.7004C24.7918 36.8964 26.3155 37.7108 27.9744 38.0408C29.6333 38.3708 31.3528 38.2014 32.9154 37.5542C34.478 36.9069 35.8137 35.8108 36.7533 34.4045C37.693 32.9981 38.1946 31.3447 38.1946 29.6534C38.1946 27.3853 37.2936 25.2101 35.6898 23.6063C34.086 22.0026 31.9109 21.1016 29.6428 21.1016Z" fill="#371B0F"/>
<path d="M40.5206 20.7641C40.5206 21.1594 40.4034 21.5458 40.1838 21.8744C39.9642 22.2031 39.6521 22.4592 39.2869 22.6104C38.9218 22.7617 38.5199 22.8013 38.1323 22.7242C37.7446 22.6471 37.3885 22.4567 37.109 22.1773C36.8295 21.8978 36.6392 21.5417 36.5621 21.154C36.485 20.7663 36.5245 20.3645 36.6758 19.9993C36.8271 19.6341 37.0832 19.322 37.4119 19.1025C37.7405 18.8829 38.1269 18.7656 38.5221 18.7656C39.0522 18.7656 39.5605 18.9762 39.9353 19.351C40.3101 19.7258 40.5206 20.2341 40.5206 20.7641Z" fill="#371B0F"/>
</g>
<defs>
<clipPath id="clip0_178_198">
<rect width="57.9394" height="57.9395" fill="white" transform="translate(0.97583 0.543945)"/>
</clipPath>
</defs>
</svg>
