<svg width="59" height="59" viewBox="0 0 59 59" fill="none" xmlns="http://www.w3.org/2000/svg">
<g clip-path="url(#clip0_178_213)">
<path d="M49.6484 49.9662C60.9683 38.6463 60.9683 20.2932 49.6484 8.97331C38.3285 -2.34656 19.9754 -2.34658 8.65554 8.97328C-2.66433 20.2931 -2.6643 38.6463 8.65556 49.9662C19.9754 61.286 38.3285 61.286 49.6484 49.9662Z" fill="white"/>
<path d="M20.7884 24.168H14.1797V44.5195H20.7884V24.168Z" fill="#371B0F"/>
<path d="M17.4825 14C15.3506 14 13.9606 15.5273 14.0044 17.5627C13.9807 18.0232 14.0528 18.4836 14.2161 18.9148C14.3794 19.346 14.6304 19.7387 14.9531 20.068C15.2759 20.3973 15.6634 20.6561 16.0912 20.8281C16.519 21 16.9778 21.0814 17.4387 21.0671C19.6114 21.0671 21.0044 19.4931 21.0044 17.5627C20.9606 15.5273 19.6114 14 17.4825 14Z" fill="#371B0F"/>
<path d="M37.218 23.6921C36.0973 23.677 34.9863 23.9011 33.9591 24.3493C32.9318 24.7974 32.0119 25.4594 31.2606 26.2912V24.1711H24.6548V44.5226H31.2606V33.1714C31.2443 32.6088 31.3334 32.0483 31.5234 31.5185C31.9586 30.3008 33.0449 29.0392 34.8701 29.0392C37.2618 29.0392 38.2168 30.9111 38.2168 33.6474V44.5226H44.8255V32.821C44.8255 26.5628 41.5664 23.6921 37.218 23.6921Z" fill="#371B0F"/>
</g>
<defs>
<clipPath id="clip0_178_213">
<rect width="57.9727" height="57.9727" fill="white" transform="translate(0.165649 0.483398)"/>
</clipPath>
</defs>
</svg>
