<svg width="42" height="42" viewBox="0 0 42 42" fill="none" xmlns="http://www.w3.org/2000/svg">
<g clip-path="url(#clip0_677_1838)">
<path d="M35.5706 35.8923C43.5537 27.9092 43.5537 14.966 35.5706 6.98294C27.5875 -1.00016 14.6444 -1.00018 6.66127 6.98292C-1.32183 14.966 -1.32182 27.9092 6.66128 35.8923C14.6444 43.8754 27.5875 43.8754 35.5706 35.8923Z" fill="#040804"/>
<path d="M16.3884 18.6479H12.7676V29.7983H16.3884V18.6479Z" fill="#E8E8EE"/>
<path d="M14.5771 13.0767C13.4091 13.0767 12.6475 13.9134 12.6715 15.0286C12.6586 15.2809 12.6981 15.5332 12.7875 15.7694C12.877 16.0057 13.0145 16.2208 13.1913 16.4012C13.3682 16.5817 13.5805 16.7235 13.8149 16.8177C14.0492 16.9119 14.3006 16.9565 14.5531 16.9486C15.7435 16.9486 16.5067 16.0862 16.5067 15.0286C16.4827 13.9134 15.7435 13.0767 14.5771 13.0767Z" fill="#E8E8EE"/>
<path d="M25.39 18.3871C24.776 18.3789 24.1672 18.5016 23.6044 18.7471C23.0416 18.9927 22.5376 19.3554 22.126 19.8111V18.6495H18.5068V29.7998H22.126V23.5807C22.117 23.2725 22.1659 22.9653 22.27 22.6751C22.5084 22.0079 23.1036 21.3167 24.1036 21.3167C25.414 21.3167 25.9371 22.3423 25.9371 23.8415V29.7998H29.558V23.3887C29.558 19.9599 27.7724 18.3871 25.39 18.3871Z" fill="#E8E8EE"/>
</g>
<defs>
<clipPath id="clip0_677_1838">
<rect width="40.884" height="40.884" fill="white" transform="translate(0.67395 0.995605)"/>
</clipPath>
</defs>
</svg>
