<svg width="42" height="42" viewBox="0 0 42 42" fill="none" xmlns="http://www.w3.org/2000/svg">
<g clip-path="url(#clip0_677_1843)">
<path d="M35.3387 35.8923C43.3218 27.9092 43.3218 14.966 35.3387 6.98294C27.3556 -1.00016 14.4124 -1.00018 6.42933 6.98292C-1.55377 14.966 -1.55375 27.9092 6.42935 35.8923C14.4124 43.8754 27.3556 43.8754 35.3387 35.8923Z" fill="#040804"/>
<path d="M28.702 18.3457C28.5288 17.756 27.2474 13.5356 21.1382 13.5356C15.0166 13.5356 13.0326 17.4359 13.1907 21.8366C13.333 25.8016 15.6914 29.0556 21.064 29.0556C24.9635 29.0556 27.817 27.1863 27.817 24.7063C27.817 22.7213 26.6261 21.7053 24.5921 21.1416C21.2867 20.2254 18.3739 20.9559 18.0928 22.6897C17.87 24.0639 19.3555 25.1592 21.3424 25.0276C23.9288 24.8562 24.6477 22.8845 24.6477 21.1628C24.6477 18.3511 22.8464 17.5559 21.4166 17.4928C18.9873 17.3855 18.1236 18.7723 18.1236 18.7723" stroke="#E8E8EE" stroke-width="1.96" stroke-miterlimit="10" stroke-linecap="round"/>
</g>
<defs>
<clipPath id="clip0_677_1843">
<rect width="40.884" height="40.884" fill="white" transform="translate(0.442017 0.995605)"/>
</clipPath>
</defs>
</svg>
