
<svg width="59" height="59" viewBox="0 0 59 59" fill="none" xmlns="http://www.w3.org/2000/svg">
<g clip-path="url(#clip0_178_218)">
<path d="M50.3445 49.9662C61.6644 38.6463 61.6644 20.2932 50.3445 8.97331C39.0247 -2.34656 20.6715 -2.34658 9.35164 8.97328C-1.96822 20.2931 -1.9682 38.6463 9.35167 49.9662C20.6715 61.286 39.0247 61.286 50.3445 49.9662Z" fill="white"/>
<path d="M46 22.9176C45.6428 21.7017 43.0009 13 30.4045 13C17.7825 13 13.6919 21.0419 14.0178 30.1156C14.3112 38.2907 19.1739 45 30.2516 45C38.2918 45 44.1751 41.1459 44.1751 36.0324C44.1751 31.9396 41.7198 29.8448 37.5259 28.6824C30.7106 26.7935 24.705 28.2996 24.1253 31.8744C23.6659 34.7079 26.7288 36.9661 30.8256 36.6948C36.1584 36.3414 37.6405 32.276 37.6405 28.7261C37.6405 22.9288 33.9265 21.2892 30.9785 21.1591C25.9696 20.9378 24.1888 23.7973 24.1888 23.7973" stroke="#371B0F" stroke-width="1.96" stroke-miterlimit="10" stroke-linecap="round"/>
</g>
<defs>
<clipPath id="clip0_178_218">
<rect width="57.9727" height="57.9727" fill="white" transform="translate(0.861755 0.483398)"/>
</clipPath>
</defs>
</svg>
