
<svg width="57" height="58" viewBox="0 0 57 58" fill="none" xmlns="http://www.w3.org/2000/svg">
<g clip-path="url(#clip0_178_205)">
<path d="M48.2093 49.069C59.2232 38.0552 59.2232 20.1981 48.2093 9.18425C37.1954 -1.82963 19.3384 -1.82965 8.32449 9.18423C-2.6894 20.1981 -2.68937 38.0552 8.32451 49.069C19.3384 60.0829 37.1954 60.0829 48.2093 49.069Z" fill="white"/>
<path d="M45.2479 19.9032C45.0435 19.1485 44.6419 18.4599 44.0831 17.9061C43.5243 17.3523 42.8279 16.9526 42.0633 16.747C39.2577 16 27.9971 16 27.9971 16C27.9971 16 16.7423 16 13.9337 16.747C13.1696 16.9528 12.4736 17.3525 11.9153 17.9064C11.357 18.4602 10.9559 19.1487 10.7521 19.9032C9.99998 22.6887 10 28.5 10 28.5C10 28.5 9.99998 34.3113 10.7521 37.0968C10.9559 37.8513 11.357 38.5398 11.9153 39.0936C12.4736 39.6475 13.1696 40.0472 13.9337 40.253C16.7423 41 27.9971 41 27.9971 41C27.9971 41 39.2577 41 42.0633 40.253C42.8279 40.0474 43.5243 39.6477 44.0831 39.0939C44.6419 38.5401 45.0435 37.8515 45.2479 37.0968C46 34.3113 46 28.5 46 28.5C46 28.5 46 22.6887 45.2479 19.9032Z" fill="#371B0F"/>
<path d="M24 34L34 28.5L24 23V34Z" fill="white"/>
</g>
<defs>
<clipPath id="clip0_178_205">
<rect width="56.4056" height="56.4056" fill="white" transform="translate(0.0640869 0.923828)"/>
</clipPath>
</defs>
</svg>