<svg width="41" height="41" viewBox="0 0 41 41" fill="none" xmlns="http://www.w3.org/2000/svg">
<g clip-path="url(#clip0_677_1830)">
<path d="M35.0105 34.8967C42.9936 26.9136 42.9936 13.9704 35.0105 5.98733C27.0274 -1.99577 14.0842 -1.99578 6.10115 5.98731C-1.88195 13.9704 -1.88193 26.9136 6.10116 34.8967C14.0843 42.8798 27.0274 42.8798 35.0105 34.8967Z" fill="#040804"/>
<path d="M29.9521 15.6837C29.8408 15.2667 29.622 14.8862 29.3177 14.5801C29.0133 14.2741 28.634 14.0532 28.2177 13.9397C26.6897 13.5268 20.5569 13.5269 20.5569 13.5269C20.5569 13.5269 14.4273 13.5268 12.8977 13.9397C12.4815 14.0533 12.1025 14.2742 11.7984 14.5803C11.4943 14.8863 11.2759 15.2668 11.1648 15.6837C10.7552 17.2229 10.7553 20.4341 10.7553 20.4341C10.7553 20.4341 10.7552 23.6453 11.1648 25.1845C11.2759 25.6014 11.4943 25.9819 11.7984 26.2879C12.1025 26.5939 12.4815 26.8148 12.8977 26.9285C14.4273 27.3413 20.5569 27.3413 20.5569 27.3413C20.5569 27.3413 26.6897 27.3413 28.2177 26.9285C28.634 26.8149 29.0133 26.5941 29.3177 26.288C29.622 25.982 29.8408 25.6015 29.9521 25.1845C30.3617 23.6453 30.3617 20.4341 30.3617 20.4341C30.3617 20.4341 30.3617 17.2229 29.9521 15.6837Z" fill="#E8E8EE"/>
<path d="M18.5504 23.3573L23.6736 20.4421L18.5504 17.5269V23.3573Z" fill="#040804"/>
</g>
<defs>
<clipPath id="clip0_677_1830">
<rect width="40.884" height="40.884" fill="white" transform="translate(0.113831)"/>
</clipPath>
</defs>
</svg>
