<svg width="314" height="43" viewBox="0 0 314 43" fill="none" xmlns="http://www.w3.org/2000/svg">
<path d="M17.1275 7.30455H13.5786C13.4774 6.73744 13.2908 6.23506 13.0188 5.79741C12.7468 5.35359 12.4083 4.97757 12.0035 4.66936C11.5986 4.36115 11.1368 4.13 10.6181 3.97589C10.1057 3.81563 9.55216 3.73549 8.95752 3.73549C7.90109 3.73549 6.96485 3.99439 6.14881 4.51218C5.33276 5.0238 4.69384 5.77583 4.23205 6.76827C3.77026 7.75453 3.53936 8.95963 3.53936 10.3836C3.53936 11.8321 3.77026 13.0526 4.23205 14.0451C4.70017 15.0313 5.33909 15.7772 6.14881 16.2827C6.96485 16.782 7.89793 17.0316 8.94804 17.0316C9.53002 17.0316 10.0741 16.9576 10.5801 16.8097C11.0925 16.6556 11.5512 16.4306 11.956 16.1347C12.3672 15.8389 12.712 15.4752 12.9903 15.0437C13.275 14.6122 13.4711 14.119 13.5786 13.5643L17.1275 13.5828C16.9946 14.4827 16.7068 15.3272 16.264 16.1162C15.8275 16.9053 15.255 17.6018 14.5465 18.2059C13.838 18.8038 13.0093 19.2723 12.0604 19.6113C11.1115 19.9442 10.0582 20.1106 8.90059 20.1106C7.19259 20.1106 5.66804 19.7254 4.32694 18.9548C2.98584 18.1843 1.92941 17.0717 1.15765 15.6169C0.385882 14.1622 0 12.4177 0 10.3836C0 8.34321 0.389045 6.59875 1.16713 5.15017C1.94522 3.69542 3.00482 2.58279 4.34592 1.81227C5.68701 1.04175 7.20524 0.656485 8.90059 0.656485C9.98233 0.656485 10.9881 0.804425 11.9181 1.1003C12.848 1.39619 13.6767 1.83076 14.4042 2.40403C15.1316 2.97113 15.7294 3.66769 16.1976 4.49369C16.672 5.31352 16.982 6.25048 17.1275 7.30455Z" fill="#040804"/>
<path d="M26.5571 20.1291C25.1337 20.1291 23.9002 19.824 22.8564 19.2137C21.8126 18.6035 21.0029 17.7497 20.4272 16.6525C19.8579 15.5553 19.5732 14.2732 19.5732 12.8061C19.5732 11.339 19.8579 10.0538 20.4272 8.95038C21.0029 7.847 21.8126 6.99018 22.8564 6.37992C23.9002 5.76967 25.1337 5.46454 26.5571 5.46454C27.9804 5.46454 29.214 5.76967 30.2577 6.37992C31.3015 6.99018 32.1081 7.847 32.6774 8.95038C33.2531 10.0538 33.5409 11.339 33.5409 12.8061C33.5409 14.2732 33.2531 15.5553 32.6774 16.6525C32.1081 17.7497 31.3015 18.6035 30.2577 19.2137C29.214 19.824 27.9804 20.1291 26.5571 20.1291ZM26.576 17.4477C27.3478 17.4477 27.993 17.2412 28.5118 16.8282C29.0305 16.409 29.4164 15.8481 29.6694 15.1454C29.9288 14.4427 30.0585 13.6598 30.0585 12.7968C30.0585 11.9277 29.9288 11.1417 29.6694 10.439C29.4164 9.73015 29.0305 9.16613 28.5118 8.74697C27.993 8.3278 27.3478 8.11822 26.576 8.11822C25.7853 8.11822 25.1274 8.3278 24.6024 8.74697C24.0836 9.16613 23.6946 9.73015 23.4352 10.439C23.1822 11.1417 23.0557 11.9277 23.0557 12.7968C23.0557 13.6598 23.1822 14.4427 23.4352 15.1454C23.6946 15.8481 24.0836 16.409 24.6024 16.8282C25.1274 17.2412 25.7853 17.4477 26.576 17.4477Z" fill="#040804"/>
<path d="M36.4564 19.8517V5.64947H39.7395V8.06274H39.9103C40.214 7.24907 40.7169 6.61416 41.4191 6.15801C42.1212 5.6957 42.9594 5.46454 43.9336 5.46454C44.9205 5.46454 45.7523 5.69878 46.4292 6.16726C47.1124 6.62957 47.5932 7.2614 47.8715 8.06274H48.0233C48.346 7.27373 48.89 6.64498 49.6554 6.17651C50.4272 5.70186 51.3413 5.46454 52.3977 5.46454C53.7388 5.46454 54.8332 5.87754 55.6809 6.70354C56.5285 7.52954 56.9524 8.73464 56.9524 10.3188V19.8517H53.5079V10.8366C53.5079 9.95514 53.2675 9.31099 52.7868 8.90415C52.306 8.49115 51.7177 8.28465 51.0218 8.28465C50.1931 8.28465 49.5447 8.53738 49.0766 9.04285C48.6148 9.54215 48.3839 10.1925 48.3839 10.9938V19.8517H45.0154V10.6979C45.0154 9.96439 44.7876 9.37879 44.3321 8.94114C43.883 8.50348 43.2947 8.28465 42.5672 8.28465C42.0738 8.28465 41.6246 8.40794 41.2198 8.6545C40.8149 8.89491 40.4923 9.23702 40.2519 9.68084C40.0115 10.1185 39.8913 10.6301 39.8913 11.2157V19.8517H36.4564Z" fill="#040804"/>
<path d="M60.4372 25.1776V5.64947H63.8152V7.99802H64.0145C64.1916 7.65283 64.4415 7.28606 64.7641 6.89771C65.0868 6.50321 65.5232 6.16726 66.0736 5.88987C66.6239 5.60632 67.3261 5.46454 68.1801 5.46454C69.3061 5.46454 70.3215 5.74501 71.2261 6.30595C72.137 6.86073 72.8582 7.68365 73.3895 8.7747C73.9272 9.8596 74.1961 11.1911 74.1961 12.7691C74.1961 14.3286 73.9336 15.6539 73.4085 16.745C72.8835 17.836 72.1686 18.6682 71.264 19.2415C70.3594 19.8147 69.3346 20.1014 68.1896 20.1014C67.3546 20.1014 66.6619 19.9658 66.1115 19.6945C65.5612 19.4233 65.1184 19.0966 64.7831 18.7144C64.4542 18.3261 64.198 17.9593 64.0145 17.6141H63.8722V25.1776H60.4372ZM63.8057 12.7506C63.8057 13.6691 63.9386 14.4735 64.2043 15.1639C64.4763 15.8543 64.8653 16.3936 65.3714 16.782C65.8838 17.1642 66.5038 17.3552 67.2312 17.3552C67.9903 17.3552 68.6261 17.158 69.1385 16.7635C69.6509 16.3628 70.0368 15.8173 70.2962 15.1269C70.5618 14.4303 70.6947 13.6382 70.6947 12.7506C70.6947 11.8691 70.565 11.0863 70.3056 10.402C70.0463 9.71782 69.6604 9.18154 69.148 8.7932C68.6356 8.40485 67.9967 8.21068 67.2312 8.21068C66.4974 8.21068 65.8743 8.39869 65.3619 8.7747C64.8495 9.15072 64.4605 9.67776 64.1948 10.3558C63.9354 11.0339 63.8057 11.8321 63.8057 12.7506Z" fill="#040804"/>
<path d="M86.4273 13.8786V5.64947H89.8623V19.8517H86.5317V17.3275H86.3798C86.0509 18.1227 85.51 18.773 84.7572 19.2785C84.0108 19.7839 83.0904 20.0367 81.996 20.0367C81.0408 20.0367 80.1962 19.8302 79.4624 19.4172C78.7349 18.998 78.1656 18.3908 77.7544 17.5956C77.3432 16.7943 77.1376 15.8265 77.1376 14.6923V5.64947H80.5726V14.1745C80.5726 15.0745 80.8257 15.7895 81.3317 16.3197C81.8378 16.8498 82.502 17.1148 83.3244 17.1148C83.8305 17.1148 84.3208 16.9946 84.7952 16.7542C85.2696 16.5138 85.6587 16.1563 85.9623 15.6817C86.2723 15.2009 86.4273 14.5999 86.4273 13.8786Z" fill="#040804"/>
<path d="M100.673 5.64947V8.23842H92.2938V5.64947H100.673ZM94.3624 2.24684H97.7974V15.58C97.7974 16.0299 97.867 16.3751 98.0061 16.6155C98.1516 16.8498 98.3414 17.01 98.5755 17.0963C98.8095 17.1826 99.0689 17.2258 99.3535 17.2258C99.5686 17.2258 99.7647 17.2104 99.9419 17.1796C100.125 17.1487 100.264 17.121 100.359 17.0963L100.938 19.713C100.755 19.7747 100.492 19.8425 100.151 19.9165C99.8153 19.9904 99.4042 20.0336 98.9171 20.0459C98.0567 20.0706 97.2818 19.9442 96.5923 19.6668C95.9027 19.3833 95.3556 18.9456 94.9507 18.3538C94.5522 17.7621 94.3561 17.0224 94.3624 16.1347V2.24684Z" fill="#040804"/>
<path d="M109.841 20.1291C108.38 20.1291 107.118 19.8332 106.055 19.2415C104.999 18.6436 104.186 17.7991 103.616 16.708C103.047 15.6108 102.762 14.3194 102.762 12.8338C102.762 11.3729 103.047 10.0908 103.616 8.98737C104.192 7.87782 104.995 7.01483 106.027 6.39842C107.058 5.77583 108.269 5.46454 109.661 5.46454C110.559 5.46454 111.407 5.60632 112.204 5.88987C113.007 6.16726 113.716 6.59875 114.329 7.18435C114.949 7.76994 115.436 8.51581 115.791 9.42194C116.145 10.3219 116.322 11.3945 116.322 12.6396V13.666H104.376V11.4099H113.029C113.023 10.7688 112.881 10.1986 112.602 9.69933C112.324 9.19387 111.935 8.79628 111.435 8.50656C110.942 8.21685 110.366 8.07199 109.708 8.07199C109.006 8.07199 108.389 8.23842 107.858 8.57129C107.327 8.89799 106.912 9.32948 106.615 9.86576C106.324 10.3959 106.175 10.9784 106.169 11.6133V13.5828C106.169 14.4088 106.324 15.1176 106.634 15.7094C106.944 16.295 107.377 16.745 107.934 17.0594C108.491 17.3676 109.142 17.5217 109.889 17.5217C110.388 17.5217 110.841 17.4539 111.246 17.3183C111.65 17.1765 112.001 16.97 112.299 16.6988C112.596 16.4275 112.821 16.0916 112.972 15.6909L116.18 16.0423C115.977 16.8683 115.591 17.5895 115.022 18.2059C114.459 18.8161 113.738 19.2908 112.859 19.6298C111.979 19.9627 110.973 20.1291 109.841 20.1291Z" fill="#040804"/>
<path d="M119.228 19.8517V5.64947H122.559V8.01651H122.71C122.976 7.19668 123.432 6.56485 124.077 6.12103C124.728 5.67104 125.472 5.44605 126.307 5.44605C126.497 5.44605 126.708 5.4553 126.943 5.47379C127.183 5.48612 127.382 5.50769 127.54 5.53851V8.61752C127.395 8.5682 127.164 8.52506 126.848 8.48807C126.538 8.44492 126.237 8.42335 125.946 8.42335C125.32 8.42335 124.757 8.55588 124.257 8.82094C123.764 9.07983 123.375 9.44044 123.09 9.90275C122.805 10.3651 122.663 10.8983 122.663 11.5024V19.8517H119.228Z" fill="#040804"/>
<path d="M147.163 6.12103C147.075 5.31352 146.702 4.68477 146.044 4.23479C145.392 3.7848 144.544 3.55981 143.501 3.55981C142.767 3.55981 142.137 3.66769 141.612 3.88343C141.087 4.09918 140.686 4.39197 140.407 4.76183C140.129 5.13168 139.987 5.55392 139.98 6.02857C139.98 6.42307 140.072 6.76518 140.255 7.0549C140.445 7.34462 140.701 7.59118 141.024 7.7946C141.347 7.99185 141.704 8.15829 142.096 8.2939C142.489 8.42951 142.884 8.54355 143.282 8.63601L145.104 9.07983C145.838 9.24626 146.543 9.47126 147.22 9.75481C147.904 10.0384 148.514 10.3959 149.052 10.8274C149.596 11.2589 150.026 11.7797 150.342 12.39C150.658 13.0002 150.817 13.7153 150.817 14.5351C150.817 15.6447 150.526 16.6217 149.944 17.4662C149.362 18.3045 148.52 18.961 147.42 19.4356C146.325 19.9041 145 20.1384 143.444 20.1384C141.932 20.1384 140.619 19.9103 139.506 19.4541C138.399 18.998 137.532 18.3323 136.906 17.4569C136.286 16.5816 135.951 15.5152 135.9 14.2577H139.363C139.414 14.9173 139.623 15.4659 139.99 15.9036C140.357 16.3412 140.834 16.6679 141.423 16.8837C142.017 17.0994 142.681 17.2073 143.415 17.2073C144.181 17.2073 144.851 17.0963 145.427 16.8744C146.009 16.6464 146.464 16.332 146.793 15.9313C147.122 15.5245 147.29 15.0498 147.296 14.5074C147.29 14.0143 147.141 13.6074 146.85 13.2869C146.559 12.9602 146.151 12.689 145.626 12.4732C145.107 12.2513 144.5 12.054 143.804 11.8815L141.593 11.3267C139.993 10.926 138.728 10.3188 137.798 9.50516C136.874 8.68532 136.412 7.59735 136.412 6.24123C136.412 5.12551 136.722 4.14849 137.342 3.31016C137.969 2.47184 138.819 1.82151 139.895 1.3592C140.97 0.890723 142.188 0.656485 143.548 0.656485C144.927 0.656485 146.135 0.890723 147.173 1.3592C148.217 1.82151 149.036 2.46567 149.63 3.29167C150.225 4.11151 150.532 5.05463 150.551 6.12103H147.163Z" fill="#040804"/>
<path d="M160.161 20.1291C158.737 20.1291 157.504 19.824 156.46 19.2137C155.416 18.6035 154.607 17.7497 154.031 16.6525C153.462 15.5553 153.177 14.2732 153.177 12.8061C153.177 11.339 153.462 10.0538 154.031 8.95038C154.607 7.847 155.416 6.99018 156.46 6.37992C157.504 5.76967 158.737 5.46454 160.161 5.46454C161.584 5.46454 162.818 5.76967 163.861 6.37992C164.905 6.99018 165.712 7.847 166.281 8.95038C166.857 10.0538 167.145 11.339 167.145 12.8061C167.145 14.2732 166.857 15.5553 166.281 16.6525C165.712 17.7497 164.905 18.6035 163.861 19.2137C162.818 19.824 161.584 20.1291 160.161 20.1291ZM160.18 17.4477C160.952 17.4477 161.597 17.2412 162.116 16.8282C162.634 16.409 163.02 15.8481 163.273 15.1454C163.533 14.4427 163.662 13.6598 163.662 12.7968C163.662 11.9277 163.533 11.1417 163.273 10.439C163.02 9.73015 162.634 9.16613 162.116 8.74697C161.597 8.3278 160.952 8.11822 160.18 8.11822C159.389 8.11822 158.731 8.3278 158.206 8.74697C157.687 9.16613 157.298 9.73015 157.039 10.439C156.786 11.1417 156.659 11.9277 156.659 12.7968C156.659 13.6598 156.786 14.4427 157.039 15.1454C157.298 15.8481 157.687 16.409 158.206 16.8282C158.731 17.2412 159.389 17.4477 160.18 17.4477Z" fill="#040804"/>
<path d="M176.418 20.1291C174.963 20.1291 173.713 19.8178 172.67 19.1952C171.632 18.5727 170.832 17.7128 170.269 16.6155C169.712 15.5122 169.434 14.2423 169.434 12.8061C169.434 11.3637 169.718 10.0908 170.288 8.98737C170.857 7.87782 171.661 7.01483 172.698 6.39842C173.742 5.77583 174.975 5.46454 176.399 5.46454C177.582 5.46454 178.629 5.67721 179.54 6.10253C180.457 6.5217 181.187 7.11654 181.731 7.88706C182.275 8.65142 182.585 9.54523 182.661 10.5685H179.378C179.245 9.88426 178.929 9.31407 178.429 8.85792C177.936 8.39561 177.275 8.16445 176.446 8.16445C175.744 8.16445 175.127 8.34938 174.596 8.71923C174.064 9.08291 173.65 9.60687 173.353 10.2911C173.062 10.9753 172.916 11.7952 172.916 12.7506C172.916 13.7184 173.062 14.5505 173.353 15.2471C173.644 15.9375 174.052 16.4707 174.577 16.8467C175.108 17.2165 175.731 17.4015 176.446 17.4015C176.952 17.4015 177.405 17.309 177.803 17.1241C178.208 16.933 178.546 16.6587 178.818 16.3012C179.09 15.9436 179.277 15.5091 179.378 14.9974H182.661C182.579 16.0022 182.275 16.8929 181.75 17.6696C181.225 18.4401 180.511 19.0442 179.606 19.4819C178.701 19.9134 177.639 20.1291 176.418 20.1291Z" fill="#040804"/>
<path d="M185.482 19.8517V5.64947H188.917V19.8517H185.482ZM187.209 3.63378C186.665 3.63378 186.197 3.4581 185.805 3.10675C185.412 2.74922 185.216 2.32081 185.216 1.82151C185.216 1.31605 185.412 0.887641 185.805 0.536283C186.197 0.178761 186.665 0 187.209 0C187.759 0 188.227 0.178761 188.613 0.536283C189.005 0.887641 189.202 1.31605 189.202 1.82151C189.202 2.32081 189.005 2.74922 188.613 3.10675C188.227 3.4581 187.759 3.63378 187.209 3.63378Z" fill="#040804"/>
<path d="M198.902 20.1291C197.44 20.1291 196.178 19.8332 195.116 19.2415C194.059 18.6436 193.246 17.7991 192.677 16.708C192.108 15.6108 191.823 14.3194 191.823 12.8338C191.823 11.3729 192.108 10.0908 192.677 8.98737C193.253 7.87782 194.056 7.01483 195.087 6.39842C196.118 5.77583 197.33 5.46454 198.721 5.46454C199.62 5.46454 200.467 5.60632 201.264 5.88987C202.068 6.16726 202.776 6.59875 203.39 7.18435C204.01 7.76994 204.497 8.51581 204.851 9.42194C205.205 10.3219 205.383 11.3945 205.383 12.6396V13.666H193.436V11.4099H202.09C202.084 10.7688 201.941 10.1986 201.663 9.69933C201.385 9.19387 200.995 8.79628 200.496 8.50656C200.002 8.21685 199.427 8.07199 198.769 8.07199C198.067 8.07199 197.45 8.23842 196.918 8.57129C196.387 8.89799 195.973 9.32948 195.675 9.86576C195.384 10.3959 195.236 10.9784 195.229 11.6133V13.5828C195.229 14.4088 195.384 15.1176 195.694 15.7094C196.004 16.295 196.438 16.745 196.994 17.0594C197.551 17.3676 198.203 17.5217 198.949 17.5217C199.449 17.5217 199.901 17.4539 200.306 17.3183C200.711 17.1765 201.062 16.97 201.359 16.6988C201.657 16.4275 201.881 16.0916 202.033 15.6909L205.24 16.0423C205.038 16.8683 204.652 17.5895 204.083 18.2059C203.52 18.8161 202.798 19.2908 201.919 19.6298C201.04 19.9627 200.034 20.1291 198.902 20.1291Z" fill="#040804"/>
<path d="M215.566 5.64947V8.23842H207.188V5.64947H215.566ZM209.256 2.24684H212.691V15.58C212.691 16.0299 212.761 16.3751 212.9 16.6155C213.046 16.8498 213.235 17.01 213.469 17.0963C213.704 17.1826 213.963 17.2258 214.248 17.2258C214.463 17.2258 214.659 17.2104 214.836 17.1796C215.019 17.1487 215.158 17.121 215.253 17.0963L215.832 19.713C215.649 19.7747 215.386 19.8425 215.045 19.9165C214.709 19.9904 214.298 20.0336 213.811 20.0459C212.951 20.0706 212.176 19.9442 211.486 19.6668C210.797 19.3833 210.25 18.9456 209.845 18.3538C209.446 17.7621 209.25 17.0224 209.256 16.1347V2.24684Z" fill="#040804"/>
<path d="M220.574 25.1776C220.106 25.1776 219.673 25.1406 219.274 25.0666C218.882 24.9988 218.569 24.9187 218.335 24.8262L219.132 22.2188C219.632 22.3606 220.078 22.4284 220.47 22.4222C220.862 22.416 221.207 22.2958 221.504 22.0616C221.808 21.8335 222.064 21.4513 222.273 20.9151L222.567 20.1476L217.282 5.64947H220.925L224.284 16.3751H224.436L227.805 5.64947H231.458L225.622 21.5715C225.35 22.3236 224.99 22.9677 224.541 23.504C224.091 24.0465 223.541 24.4595 222.89 24.743C222.244 25.0327 221.473 25.1776 220.574 25.1776Z" fill="#040804"/>
<path d="M38.9757 29.9856L42.1367 39.3012H42.2612L45.4163 29.9856H47.8359L43.5541 41.8209H40.8379L36.5619 29.9856H38.9757Z" fill="#040804"/>
<path d="M51.6359 29.9856V41.8209H49.4357V29.9856H51.6359Z" fill="#040804"/>
<path d="M53.4848 31.7829V29.9856H63.1753V31.7829H59.4213V41.8209H57.2388V31.7829H53.4848Z" fill="#040804"/>
<path d="M75.7867 33.2392C75.7313 32.7345 75.4981 32.3415 75.0869 32.0603C74.6796 31.779 74.1498 31.6384 73.4975 31.6384C73.0388 31.6384 72.6454 31.7058 72.3173 31.8407C71.9891 31.9755 71.7381 32.1585 71.5641 32.3897C71.3901 32.6208 71.3012 32.8847 71.2972 33.1814C71.2972 33.4279 71.3546 33.6418 71.4692 33.8228C71.5878 34.0039 71.748 34.158 71.9496 34.2851C72.1512 34.4084 72.3746 34.5125 72.6198 34.5972C72.8649 34.682 73.112 34.7532 73.3611 34.811L74.4997 35.0884C74.9584 35.1924 75.3992 35.3331 75.8223 35.5103C76.2493 35.6875 76.6308 35.9109 76.9669 36.1806C77.3069 36.4503 77.5757 36.7759 77.7734 37.1573C77.9711 37.5387 78.0699 37.9856 78.0699 38.498C78.0699 39.1915 77.8881 39.8021 77.5243 40.3299C77.1606 40.8539 76.6347 41.2642 75.9468 41.5608C75.2628 41.8536 74.4345 42 73.4619 42C72.517 42 71.6966 41.8575 71.0007 41.5724C70.3088 41.2873 69.7672 40.8712 69.3757 40.3241C68.9883 39.777 68.7787 39.1105 68.7471 38.3246H70.9118C70.9434 38.7368 71.0738 39.0797 71.3032 39.3533C71.5325 39.6268 71.831 39.831 72.1987 39.9658C72.5703 40.1007 72.9855 40.1681 73.4441 40.1681C73.9225 40.1681 74.3416 40.0987 74.7014 39.96C75.0651 39.8175 75.3498 39.621 75.5554 39.3706C75.761 39.1163 75.8657 38.8197 75.8697 38.4806C75.8657 38.1724 75.7728 37.9182 75.591 37.7178C75.4091 37.5136 75.1541 37.3441 74.8259 37.2093C74.5017 37.0706 74.1222 36.9473 73.6872 36.8394L72.3054 36.4927C71.3051 36.2423 70.5144 35.8628 69.9332 35.3542C69.356 34.8419 69.0673 34.1619 69.0673 33.3143C69.0673 32.617 69.2611 32.0063 69.6485 31.4824C70.04 30.9584 70.5717 30.552 71.2439 30.263C71.916 29.9702 72.6771 29.8238 73.5271 29.8238C74.389 29.8238 75.1442 29.9702 75.7926 30.263C76.445 30.552 76.957 30.9546 77.3286 31.4708C77.7003 31.9832 77.892 32.5727 77.9039 33.2392H75.7867Z" fill="#040804"/>
<path d="M84.4853 32.9444V34.5625H79.2486V32.9444H84.4853ZM80.5415 30.8178H82.6884V39.151C82.6884 39.4322 82.7319 39.648 82.8188 39.7982C82.9098 39.9446 83.0284 40.0448 83.1747 40.0987C83.321 40.1527 83.4831 40.1796 83.661 40.1796C83.7954 40.1796 83.918 40.17 84.0287 40.1507C84.1433 40.1315 84.2303 40.1142 84.2896 40.0987L84.6514 41.7342C84.5367 41.7727 84.3726 41.8151 84.1591 41.8613C83.9496 41.9075 83.6926 41.9345 83.3882 41.9422C82.8505 41.9576 82.3661 41.8786 81.9352 41.7053C81.5042 41.5281 81.1622 41.2545 80.9092 40.8847C80.6601 40.5148 80.5376 40.0525 80.5415 39.4977V30.8178Z" fill="#040804"/>
<path d="M92.0868 38.0877V32.9444H94.2337V41.8209H92.1521V40.2432H92.0572C91.8516 40.7402 91.5135 41.1466 91.043 41.4626C90.5765 41.7785 90.0012 41.9364 89.3173 41.9364C88.7202 41.9364 88.1924 41.8074 87.7338 41.5492C87.2791 41.2873 86.9233 40.9078 86.6663 40.4108C86.4093 39.91 86.2808 39.3051 86.2808 38.5962V32.9444H88.4277V38.2726C88.4277 38.8351 88.5858 39.282 88.9021 39.6133C89.2184 39.9446 89.6335 40.1103 90.1475 40.1103C90.4638 40.1103 90.7702 40.0352 91.0668 39.8849C91.3633 39.7347 91.6064 39.5112 91.7962 39.2146C91.99 38.9141 92.0868 38.5384 92.0868 38.0877Z" fill="#040804"/>
<path d="M99.8218 41.9769C99.1061 41.9769 98.4656 41.7977 97.9003 41.4394C97.3349 41.0812 96.8881 40.5611 96.56 39.8791C96.2318 39.1972 96.0677 38.3689 96.0677 37.3942C96.0677 36.4079 96.2338 35.5758 96.5659 34.8977C96.9019 34.2158 97.3546 33.7015 97.924 33.3547C98.4933 33.0042 99.1279 32.8289 99.8277 32.8289C100.361 32.8289 100.8 32.9175 101.144 33.0947C101.488 33.2681 101.761 33.478 101.963 33.7246C102.164 33.9673 102.321 34.1965 102.431 34.4123H102.52V29.9856H104.673V41.8209H102.562V40.4224H102.431C102.321 40.6381 102.16 40.8673 101.951 41.11C101.741 41.3489 101.465 41.5531 101.121 41.7226C100.777 41.8921 100.344 41.9769 99.8218 41.9769ZM100.421 40.2605C100.875 40.2605 101.263 40.1411 101.583 39.9023C101.903 39.6595 102.147 39.3224 102.313 38.8909C102.479 38.4595 102.562 37.9567 102.562 37.3826C102.562 36.8086 102.479 36.3097 102.313 35.8859C102.15 35.4621 101.909 35.1327 101.589 34.8977C101.273 34.6627 100.883 34.5452 100.421 34.5452C99.9424 34.5452 99.543 34.6666 99.2228 34.9093C98.9025 35.152 98.6613 35.4872 98.4992 35.9148C98.3371 36.3424 98.2561 36.8317 98.2561 37.3826C98.2561 37.9374 98.3371 38.4325 98.4992 38.8678C98.6653 39.2993 98.9085 39.6403 99.2287 39.8907C99.5529 40.1373 99.9503 40.2605 100.421 40.2605Z" fill="#040804"/>
<path d="M110.993 41.9942C110.08 41.9942 109.291 41.8093 108.627 41.4394C107.967 41.0657 107.459 40.5379 107.103 39.856C106.747 39.1703 106.569 38.3631 106.569 37.4347C106.569 36.5216 106.747 35.7202 107.103 35.0306C107.463 34.3372 107.965 33.7978 108.609 33.4125C109.254 33.0234 110.011 32.8289 110.881 32.8289C111.442 32.8289 111.972 32.9175 112.47 33.0947C112.972 33.2681 113.415 33.5377 113.799 33.9037C114.186 34.2697 114.491 34.7359 114.712 35.3022C114.933 35.8647 115.044 36.5351 115.044 37.3133V37.9548H107.577V36.5447H112.986C112.982 36.144 112.893 35.7877 112.719 35.4756C112.545 35.1597 112.302 34.9112 111.99 34.7301C111.681 34.5491 111.322 34.4585 110.91 34.4585C110.472 34.4585 110.086 34.5625 109.754 34.7706C109.422 34.9748 109.163 35.2444 108.977 35.5796C108.795 35.9109 108.702 36.275 108.698 36.6718V37.9028C108.698 38.419 108.795 38.862 108.989 39.2319C109.183 39.5979 109.453 39.8791 109.801 40.0756C110.149 40.2683 110.557 40.3646 111.023 40.3646C111.335 40.3646 111.618 40.3222 111.871 40.2374C112.124 40.1488 112.344 40.0198 112.529 39.8502C112.715 39.6807 112.856 39.4708 112.951 39.2203L114.955 39.4399C114.829 39.9562 114.587 40.4069 114.232 40.7922C113.88 41.1736 113.429 41.4703 112.879 41.6822C112.33 41.8902 111.701 41.9942 110.993 41.9942Z" fill="#040804"/>
<path d="M119.007 36.6198V41.8209H116.86V32.9444H118.912V34.4527H119.019C119.229 33.9558 119.563 33.5609 120.021 33.2681C120.484 32.9753 121.055 32.8289 121.735 32.8289C122.364 32.8289 122.911 32.9599 123.378 33.2218C123.848 33.4838 124.212 33.8633 124.469 34.3603C124.73 34.8573 124.859 35.4602 124.855 36.1691V41.8209H122.708V36.4927C122.708 35.8994 122.55 35.4352 122.233 35.1C121.921 34.7648 121.488 34.5972 120.935 34.5972C120.559 34.5972 120.225 34.6781 119.932 34.8399C119.644 34.9979 119.416 35.2271 119.25 35.5276C119.088 35.8281 119.007 36.1922 119.007 36.6198Z" fill="#040804"/>
<path d="M131.586 32.9444V34.5625H126.349V32.9444H131.586ZM127.642 30.8178H129.789V39.151C129.789 39.4322 129.832 39.648 129.919 39.7982C130.01 39.9446 130.129 40.0448 130.275 40.0987C130.421 40.1527 130.584 40.1796 130.762 40.1796C130.896 40.1796 131.019 40.17 131.129 40.1507C131.244 40.1315 131.331 40.1142 131.39 40.0987L131.752 41.7342C131.637 41.7727 131.473 41.8151 131.26 41.8613C131.05 41.9075 130.793 41.9345 130.489 41.9422C129.951 41.9576 129.467 41.8786 129.036 41.7053C128.605 41.5281 128.263 41.2545 128.01 40.8847C127.761 40.5148 127.638 40.0525 127.642 39.4977V30.8178Z" fill="#040804"/>
<path d="M137.619 41.8209V29.9856H142.268C143.146 29.9856 143.875 30.1205 144.457 30.3902C145.042 30.656 145.479 31.0201 145.767 31.4824C146.06 31.9447 146.206 32.4686 146.206 33.0542C146.206 33.5358 146.111 33.948 145.922 34.2909C145.732 34.63 145.477 34.9054 145.156 35.1173C144.836 35.3292 144.478 35.4814 144.083 35.5738V35.6894C144.514 35.7125 144.927 35.8416 145.323 36.0766C145.722 36.3078 146.048 36.6352 146.301 37.059C146.554 37.4828 146.681 37.9952 146.681 38.5962C146.681 39.2088 146.528 39.7597 146.224 40.249C145.92 40.7344 145.461 41.1178 144.848 41.399C144.235 41.6802 143.464 41.8209 142.535 41.8209H137.619ZM139.819 40.0294H142.185C142.984 40.0294 143.559 39.8811 143.911 39.5844C144.267 39.2839 144.445 38.8987 144.445 38.4286C144.445 38.078 144.356 37.7621 144.178 37.4809C144 37.1958 143.747 36.9723 143.419 36.8105C143.091 36.6449 142.699 36.562 142.245 36.562H139.819V40.0294ZM139.819 35.0191H141.995C142.375 35.0191 142.717 34.9517 143.021 34.8168C143.326 34.6781 143.565 34.4836 143.739 34.2331C143.917 33.9789 144.006 33.6784 144.006 33.3316C144.006 32.8732 143.84 32.4956 143.508 32.199C143.18 31.9023 142.691 31.754 142.043 31.754H139.819V35.0191Z" fill="#040804"/>
<path d="M148.5 41.8209V32.9444H150.581V34.4238H150.676C150.842 33.9114 151.127 33.5166 151.53 33.2392C151.938 32.9579 152.402 32.8173 152.924 32.8173C153.043 32.8173 153.175 32.8231 153.321 32.8346C153.472 32.8423 153.596 32.8558 153.695 32.8751V34.7995C153.604 34.7687 153.46 34.7417 153.262 34.7186C153.068 34.6916 152.881 34.6781 152.699 34.6781C152.307 34.6781 151.955 34.7609 151.643 34.9266C151.335 35.0884 151.091 35.3138 150.914 35.6027C150.736 35.8917 150.647 36.2249 150.647 36.6025V41.8209H148.5Z" fill="#040804"/>
<path d="M157.58 42C157.002 42 156.482 41.8998 156.02 41.6995C155.561 41.4953 155.197 41.1948 154.929 40.798C154.664 40.4012 154.531 39.9119 154.531 39.3301C154.531 38.8293 154.626 38.4151 154.816 38.0877C155.006 37.7602 155.265 37.4982 155.593 37.3017C155.921 37.1053 156.291 36.9569 156.702 36.8568C157.117 36.7527 157.546 36.6776 157.989 36.6314C158.522 36.5775 158.955 36.5293 159.288 36.4869C159.62 36.4407 159.861 36.3713 160.011 36.2789C160.165 36.1826 160.242 36.0342 160.242 35.8339V35.7992C160.242 35.3639 160.11 35.0268 159.845 34.7879C159.58 34.5491 159.199 34.4296 158.7 34.4296C158.175 34.4296 157.757 34.5414 157.449 34.7648C157.145 34.9883 156.939 35.2522 156.832 35.5565L154.828 35.2791C154.986 34.7398 155.247 34.289 155.611 33.9269C155.974 33.5609 156.419 33.2873 156.945 33.1063C157.471 32.9213 158.052 32.8289 158.689 32.8289C159.127 32.8289 159.564 32.8789 159.999 32.9791C160.434 33.0793 160.831 33.2449 161.191 33.4761C161.551 33.7034 161.84 34.0135 162.057 34.4065C162.279 34.7995 162.389 35.2907 162.389 35.8801V41.8209H160.325V40.6015H160.254C160.124 40.8481 159.94 41.0792 159.703 41.295C159.469 41.5069 159.175 41.6783 158.819 41.8093C158.467 41.9364 158.054 42 157.58 42ZM158.137 40.4628C158.568 40.4628 158.942 40.38 159.258 40.2143C159.574 40.0448 159.817 39.8214 159.987 39.544C160.161 39.2666 160.248 38.9641 160.248 38.6367V37.5907C160.181 37.6446 160.066 37.6947 159.904 37.7409C159.746 37.7872 159.568 37.8276 159.371 37.8623C159.173 37.897 158.977 37.9278 158.783 37.9548C158.59 37.9817 158.422 38.0048 158.279 38.0241C157.959 38.0665 157.672 38.1358 157.419 38.2322C157.166 38.3285 156.967 38.4633 156.82 38.6367C156.674 38.8062 156.601 39.0258 156.601 39.2955C156.601 39.6807 156.745 39.9716 157.034 40.1681C157.323 40.3646 157.69 40.4628 158.137 40.4628Z" fill="#040804"/>
<path d="M166.695 36.6198V41.8209H164.548V32.9444H166.6V34.4527H166.707C166.916 33.9558 167.25 33.5609 167.709 33.2681C168.172 32.9753 168.743 32.8289 169.423 32.8289C170.051 32.8289 170.599 32.9599 171.066 33.2218C171.536 33.4838 171.9 33.8633 172.157 34.3603C172.418 34.8573 172.546 35.4602 172.542 36.1691V41.8209H170.395V36.4927C170.395 35.8994 170.237 35.4352 169.921 35.1C169.609 34.7648 169.176 34.5972 168.622 34.5972C168.247 34.5972 167.913 34.6781 167.62 34.8399C167.331 34.9979 167.104 35.2271 166.938 35.5276C166.776 35.8281 166.695 36.1922 166.695 36.6198Z" fill="#040804"/>
<path d="M178.698 41.9942C177.789 41.9942 177.008 41.7997 176.356 41.4106C175.707 41.0214 175.207 40.484 174.855 39.7982C174.507 39.1086 174.333 38.315 174.333 37.4173C174.333 36.5158 174.511 35.7202 174.867 35.0306C175.223 34.3372 175.725 33.7978 176.373 33.4125C177.026 33.0234 177.797 32.8289 178.686 32.8289C179.426 32.8289 180.08 32.9618 180.649 33.2276C181.223 33.4896 181.679 33.8614 182.019 34.3429C182.359 34.8207 182.553 35.3793 182.601 36.0188H180.549C180.466 35.5912 180.268 35.2348 179.956 34.9497C179.647 34.6608 179.234 34.5163 178.716 34.5163C178.277 34.5163 177.892 34.6319 177.56 34.863C177.227 35.0903 176.969 35.4178 176.783 35.8455C176.601 36.2731 176.51 36.7855 176.51 37.3826C176.51 37.9875 176.601 38.5076 176.783 38.943C176.965 39.3745 177.22 39.7077 177.548 39.9427C177.88 40.1739 178.269 40.2894 178.716 40.2894C179.032 40.2894 179.315 40.2317 179.564 40.1161C179.817 39.9966 180.029 39.8252 180.199 39.6018C180.369 39.3783 180.485 39.1067 180.549 38.7869H182.601C182.549 39.4149 182.359 39.9716 182.031 40.457C181.703 40.9386 181.256 41.3162 180.691 41.5897C180.126 41.8594 179.461 41.9942 178.698 41.9942Z" fill="#040804"/>
<path d="M186.51 36.6198V41.8209H184.363V29.9856H186.463V34.4527H186.57C186.783 33.9519 187.113 33.557 187.56 33.2681C188.011 32.9753 188.584 32.8289 189.28 32.8289C189.912 32.8289 190.464 32.9579 190.934 33.216C191.405 33.4742 191.769 33.8517 192.026 34.3487C192.287 34.8457 192.417 35.4525 192.417 36.1691V41.8209H190.27V36.4927C190.27 35.8955 190.112 35.4313 189.796 35.1C189.483 34.7648 189.045 34.5972 188.479 34.5972C188.1 34.5972 187.76 34.6781 187.459 34.8399C187.163 34.9979 186.929 35.2271 186.759 35.5276C186.593 35.8281 186.51 36.1922 186.51 36.6198Z" fill="#040804"/>
<path d="M297 2H296V3V20.7523V21.1816L296.311 21.4773L311.277 35.6934L312.965 37.2976V34.9684V3V2H311.965H297Z" fill="#0A5616" stroke="#040804" stroke-width="2"/>
<path d="M294.169 38.1236L295.857 39.7278V37.3986V2.76465V1.76465H294.857H277.086H276.086V2.76465V20.5169V20.9463L276.397 21.242L294.169 38.1236Z" fill="#E8E8EE" stroke="#040804" stroke-width="2"/>
<path d="M275.707 2.76465V1.76465H274.707H238.229H235.674L237.55 3.49895L274.028 37.2215L275.707 38.7735V36.4872V2.76465Z" fill="#EA8913" stroke="#040804" stroke-width="2"/>
</svg>
