<svg width="1280" height="338" viewBox="0 0 1280 338" fill="none" xmlns="http://www.w3.org/2000/svg">
<path d="M26.0391 77.0039V58.1239H28.9191V77.0039H26.0391ZM31.7991 77.0039V58.1239H34.6791V77.0039H31.7991ZM35.6391 77.0039V58.1239H36.5991V77.0039H35.6391ZM37.5591 77.0039V58.1239H38.5191V77.0039H37.5591ZM39.4791 77.0039V58.1239H40.4391V77.0039H39.4791ZM41.4141 77.0039V58.1239H44.2941V77.0039H41.4141ZM47.1741 77.0039V58.1239H48.1341V77.0039H47.1741ZM49.0941 77.0039V58.1239H50.0541V77.0039H49.0941ZM51.0141 77.0039V58.1239H51.9741V77.0039H51.0141ZM52.9341 77.0039V58.1239H55.8141V77.0039H52.9341ZM56.7891 77.0039V58.1239H57.7491V77.0039H56.7891ZM58.7091 77.0039V58.1239H61.5891V77.0039H58.7091ZM62.5491 77.0039V58.1239H63.5091V77.0039H62.5491ZM66.3891 77.0039V58.1239H67.3491V77.0039H66.3891ZM68.3091 77.0039V58.1239H71.1891V77.0039H68.3091ZM72.1641 77.0039V58.1239H73.1241V77.0039H72.1641ZM74.0841 77.0039V58.1239H76.9641V77.0039H74.0841ZM77.9241 77.0039V58.1239H78.8841V77.0039H77.9241ZM81.7641 77.0039V58.1239H82.7241V77.0039H81.7641ZM83.6841 77.0039V58.1239H86.5641V77.0039H83.6841ZM87.5391 77.0039V58.1239H90.4191V77.0039H87.5391ZM91.3791 77.0039V58.1239H92.3391V77.0039H91.3791ZM93.2991 77.0039V58.1239H94.2591V77.0039H93.2991ZM97.1391 77.0039V58.1239H98.0991V77.0039H97.1391ZM99.0591 77.0039V58.1239H101.939V77.0039H99.0591ZM102.914 77.0039V58.1239H103.874V77.0039H102.914ZM106.754 77.0039V58.1239H109.634V77.0039H106.754ZM110.594 77.0039V58.1239H111.554V77.0039H110.594ZM112.514 77.0039V58.1239H115.394V77.0039H112.514ZM116.354 77.0039V58.1239H117.314V77.0039H116.354ZM118.289 77.0039V58.1239H119.249V77.0039H118.289ZM120.209 77.0039V58.1239H123.089V77.0039H120.209ZM124.049 77.0039V58.1239H125.009V77.0039H124.049ZM125.969 77.0039V58.1239H126.929V77.0039H125.969ZM129.809 77.0039V58.1239H132.689V77.0039H129.809ZM133.664 77.0039V58.1239H136.544V77.0039H133.664ZM139.424 77.0039V58.1239H140.384V77.0039H139.424ZM141.344 77.0039V58.1239H142.304V77.0039H141.344ZM143.264 77.0039V58.1239H144.224V77.0039H143.264ZM145.184 77.0039V58.1239H148.064V77.0039H145.184ZM149.039 77.0039V58.1239H149.999V77.0039H149.039ZM150.959 77.0039V58.1239H153.839V77.0039H150.959ZM154.799 77.0039V58.1239H155.759V77.0039H154.799ZM158.639 77.0039V58.1239H159.599V77.0039H158.639ZM160.559 77.0039V58.1239H163.439V77.0039H160.559ZM164.414 77.0039V58.1239H165.374V77.0039H164.414ZM166.334 77.0039V58.1239H169.214V77.0039H166.334ZM170.174 77.0039V58.1239H171.134V77.0039H170.174ZM174.014 77.0039V58.1239H174.974V77.0039H174.014ZM175.934 77.0039V58.1239H178.814V77.0039H175.934ZM179.789 77.0039V58.1239H182.669V77.0039H179.789ZM183.629 77.0039V58.1239H184.589V77.0039H183.629ZM185.549 77.0039V58.1239H186.509V77.0039H185.549ZM189.389 77.0039V58.1239H190.349V77.0039H189.389ZM191.309 77.0039V58.1239H194.189V77.0039H191.309ZM195.164 77.0039V58.1239H196.124V77.0039H195.164ZM199.004 77.0039V58.1239H201.884V77.0039H199.004ZM202.844 77.0039V58.1239H203.804V77.0039H202.844ZM204.764 77.0039V58.1239H207.644V77.0039H204.764ZM208.604 77.0039V58.1239H209.564V77.0039H208.604ZM210.539 77.0039V58.1239H211.499V77.0039H210.539ZM212.459 77.0039V58.1239H213.419V77.0039H212.459ZM214.379 77.0039V58.1239H217.259V77.0039H214.379ZM220.139 77.0039V58.1239H221.099V77.0039H220.139ZM222.059 77.0039V58.1239H224.939V77.0039H222.059ZM225.914 77.0039V58.1239H228.794V77.0039H225.914ZM231.674 77.0039V58.1239H232.634V77.0039H231.674ZM233.594 77.0039V58.1239H234.554V77.0039H233.594ZM235.514 77.0039V58.1239H236.474V77.0039H235.514ZM237.434 77.0039V58.1239H240.314V77.0039H237.434ZM241.289 77.0039V58.1239H242.249V77.0039H241.289ZM243.209 77.0039V58.1239H246.089V77.0039H243.209ZM247.049 77.0039V58.1239H248.009V77.0039H247.049ZM250.889 77.0039V58.1239H251.849V77.0039H250.889ZM252.809 77.0039V58.1239H255.689V77.0039H252.809ZM256.664 77.0039V58.1239H257.624V77.0039H256.664ZM260.504 77.0039V58.1239H263.384V77.0039H260.504ZM264.344 77.0039V58.1239H265.304V77.0039H264.344ZM266.264 77.0039V58.1239H269.144V77.0039H266.264ZM270.104 77.0039V58.1239H271.064V77.0039H270.104ZM272.039 77.0039V58.1239H272.999V77.0039H272.039ZM273.959 77.0039V58.1239H274.919V77.0039H273.959ZM275.879 77.0039V58.1239H278.759V77.0039H275.879ZM281.639 77.0039V58.1239H282.599V77.0039H281.639ZM283.559 77.0039V58.1239H286.439V77.0039H283.559ZM287.414 77.0039V58.1239H290.294V77.0039H287.414ZM293.174 77.0039V58.1239H294.134V77.0039H293.174ZM295.094 77.0039V58.1239H296.054V77.0039H295.094ZM297.014 77.0039V58.1239H297.974V77.0039H297.014ZM298.934 77.0039V58.1239H301.814V77.0039H298.934ZM302.789 77.0039V58.1239H303.749V77.0039H302.789ZM304.709 77.0039V58.1239H307.589V77.0039H304.709ZM308.549 77.0039V58.1239H309.509V77.0039H308.549ZM312.389 77.0039V58.1239H313.349V77.0039H312.389ZM314.309 77.0039V58.1239H317.189V77.0039H314.309Z" fill="#FF453A"/>
<g filter="url(#filter0_dd_677_1815)">
<path d="M2175 56.0027V37.0021L2172.54 37.003L2167.54 42.0039L2162.54 37.003L2139.54 37.0045L2114.54 12.0052L2089.54 37.0033L2073.61 52.9372L2063.17 42.5047H1895.04L1873.61 63.9372L1852.67 43.0061H1842.54L1831.61 53.9386L1818.04 40.3714H1688.67L1679.54 49.5061L1672.76 42.7224H1501.54L1495.82 37.0033L1488.82 30.0056H1461.54L1454.54 37.0033L1416.54 75.0039L1384.54 43.0039H1380.04L1370.04 53.0039L1360.54 43.5039H1319.04L1306.54 56.0039H1298.5V36.9995H1204.5L1179.5 12L1154.5 36.9982L1138.57 52.9321L1128.13 42.4995H960L938.567 63.9321L917.635 43.0009H907.5L896.567 53.9336L883 40.3662H753.635L744.5 49.501L737.716 42.7173H566.5L560.781 36.9982L553.783 30.0005H526.5L519.502 36.9982L481.5 74.9987L449.5 42.9987H445L435 52.9987L425.5 43.4987H384L371.5 55.9987H323.5V74.9985H19.5V55.9987L0.500732 36.9995L-15.9619 37.0007L-40.9614 12.0012L-65.9597 36.9994L-81.8936 52.9333L-92.3262 42.5007H-260.461L-281.894 63.9333L-302.826 43.0022H-312.961L-323.894 53.9348L-337.461 40.3674H-466.826L-475.961 49.5022L-482.745 42.7185H-653.961L-659.68 36.9994L-666.678 30.0017H-693.961L-700.959 36.9994L-738.961 75L-770.961 43H-775.461L-785.461 53L-794.961 43.5H-836.461L-848.961 56H-894V403.998H2175V75.0025V56.0027Z" fill="#FF453A"/>
</g>
<defs>
<filter id="filter0_dd_677_1815" x="-898" y="0" width="3077" height="415.998" filterUnits="userSpaceOnUse" color-interpolation-filters="sRGB">
<feFlood flood-opacity="0" result="BackgroundImageFix"/>
<feColorMatrix in="SourceAlpha" type="matrix" values="0 0 0 0 0 0 0 0 0 0 0 0 0 0 0 0 0 0 127 0" result="hardAlpha"/>
<feOffset dy="8"/>
<feGaussianBlur stdDeviation="2"/>
<feComposite in2="hardAlpha" operator="out"/>
<feColorMatrix type="matrix" values="0 0 0 0 0 0 0 0 0 0 0 0 0 0 0 0 0 0 0.25 0"/>
<feBlend mode="normal" in2="BackgroundImageFix" result="effect1_dropShadow_677_1815"/>
<feColorMatrix in="SourceAlpha" type="matrix" values="0 0 0 0 0 0 0 0 0 0 0 0 0 0 0 0 0 0 127 0" result="hardAlpha"/>
<feOffset dy="-8"/>
<feGaussianBlur stdDeviation="2"/>
<feComposite in2="hardAlpha" operator="out"/>
<feColorMatrix type="matrix" values="0 0 0 0 0 0 0 0 0 0 0 0 0 0 0 0 0 0 0.25 0"/>
<feBlend mode="normal" in2="effect1_dropShadow_677_1815" result="effect2_dropShadow_677_1815"/>
<feBlend mode="normal" in="SourceGraphic" in2="effect2_dropShadow_677_1815" result="shape"/>
</filter>
</defs>
</svg>
