<svg width="1063" height="74" viewBox="0 0 1063 74" fill="none" xmlns="http://www.w3.org/2000/svg">
<g filter="url(#filter0_dd_1554_1517)">
<path d="M592.422 17.5785L579.938 30.1571L567.455 17.5785L563.46 13.5533H549.878L545.883 17.5785H482.966L476.674 23.9183L470.382 17.5785H425.442L422.945 20.0943H414.257L411.76 17.5785H321.579L317.585 21.6038L313.59 17.5785L301.106 5L291.219 14.9627H2.00024V68.9989H1061.2V22.7105H763.995L762.497 24.2199L760.999 22.7105H716V30.1571H666.524V22.7105H663.727V30.1571H643.354V22.7105H624.18L619.086 17.5785H602.808L598.813 21.6038L594.818 17.5785H592.422Z" fill="#FF453A"/>
</g>
<defs>
<filter id="filter0_dd_1554_1517" x="0.4" y="0.2" width="1062.4" height="73.599" filterUnits="userSpaceOnUse" color-interpolation-filters="sRGB">
<feFlood flood-opacity="0" result="BackgroundImageFix"/>
<feColorMatrix in="SourceAlpha" type="matrix" values="0 0 0 0 0 0 0 0 0 0 0 0 0 0 0 0 0 0 127 0" result="hardAlpha"/>
<feOffset dy="3.2"/>
<feGaussianBlur stdDeviation="0.8"/>
<feComposite in2="hardAlpha" operator="out"/>
<feColorMatrix type="matrix" values="0 0 0 0 0 0 0 0 0 0 0 0 0 0 0 0 0 0 0.25 0"/>
<feBlend mode="normal" in2="BackgroundImageFix" result="effect1_dropShadow_1554_1517"/>
<feColorMatrix in="SourceAlpha" type="matrix" values="0 0 0 0 0 0 0 0 0 0 0 0 0 0 0 0 0 0 127 0" result="hardAlpha"/>
<feOffset dy="-3.2"/>
<feGaussianBlur stdDeviation="0.8"/>
<feComposite in2="hardAlpha" operator="out"/>
<feColorMatrix type="matrix" values="0 0 0 0 0 0 0 0 0 0 0 0 0 0 0 0 0 0 0.25 0"/>
<feBlend mode="normal" in2="effect1_dropShadow_1554_1517" result="effect2_dropShadow_1554_1517"/>
<feBlend mode="normal" in="SourceGraphic" in2="effect2_dropShadow_1554_1517" result="shape"/>
</filter>
</defs>
</svg>
