<svg width="248" height="58" viewBox="0 0 248 58" fill="none" xmlns="http://www.w3.org/2000/svg">
<path d="M179.497 0.714111L207.137 28.9928L179.497 57.2855H68.5033L40.8625 28.9928L68.5033 0.714111H179.497Z" fill="#FBEC0A"/>
<path d="M200.414 57.2855L228.055 29.0022L200.414 0.714111H188.7L216.336 28.9928L188.7 57.2762L200.414 57.2855Z" fill="#FBEC0A"/>
<path d="M220.109 57.2855L247.75 29.0022L220.109 0.723481H208.381L236.022 29.0022L208.381 57.2855H220.109Z" fill="#FBEC0A"/>
<path d="M47.5862 57.2855L19.9454 29.0022L47.5862 0.714111H59.3003L31.664 28.9928L59.3003 57.2762L47.5862 57.2855Z" fill="#FBEC0A"/>
<path d="M27.8908 57.2855L0.25 29.0022L27.8908 0.723481H39.6186L11.9778 29.0022L39.6186 57.2855H27.8908Z" fill="#FBEC0A"/>
</svg>
