
<svg width="456" height="183" viewBox="0 0 456 183" fill="none" xmlns="http://www.w3.org/2000/svg">
<g filter="url(#filter0_f_171_120)">
<ellipse cx="228" cy="91.5" rx="156" ry="19.5" fill="#93FD10"/>
</g>
<g clip-path="url(#clip0_171_120)">
<rect x="59" y="6" width="325" height="99" rx="49.5" fill="#93FD10"/>
<path d="M140.39 53.405C140.61 53.8083 141.013 54.3767 141.6 55.11C142.187 55.8067 142.663 56.4667 143.03 57.09C143.397 57.7133 143.562 58.2817 143.525 58.795C143.525 59.345 143.213 59.8767 142.59 60.39C142.003 60.8667 141.307 61.3617 140.5 61.875C139.693 62.3883 139.162 62.8467 138.905 63.25C138.648 63.6533 138.392 64.6617 138.135 66.275C137.915 67.8883 137.493 68.8967 136.87 69.3C136.43 69.5567 135.898 69.74 135.275 69.85C134.688 69.96 133.955 70.0517 133.075 70.125C132.232 70.1617 131.608 70.2167 131.205 70.29C131.205 70.8767 130.527 71.39 129.17 71.83C127.85 72.3067 126.512 72.4717 125.155 72.325C123.945 72.215 122.643 71.775 121.25 71.005C119.893 70.1983 119.087 69.52 118.83 68.97C118.867 68.42 119.178 67.54 119.765 66.33C120.388 65.0833 120.682 64.1483 120.645 63.525C120.645 63.1217 120.627 62.2967 120.59 61.05C120.59 59.8033 120.572 58.8317 120.535 58.135C120.462 57.5483 120.095 56.705 119.435 55.605C118.812 54.4683 118.463 53.6067 118.39 53.02C118.353 52.4333 118.537 51.535 118.94 50.325C119.38 49.115 119.582 48.2167 119.545 47.63C119.508 47.1167 119.325 46.2733 118.995 45.1C118.665 43.89 118.518 42.955 118.555 42.295C118.335 42.185 117.84 42.0383 117.07 41.855C116.3 41.6717 115.64 41.415 115.09 41.085C114.54 40.755 114.192 40.26 114.045 39.6C115.182 38.2433 116.74 37.0333 118.72 35.97C120.077 35.2367 121.837 34.7233 124 34.43C124 34.2833 124.66 34.155 125.98 34.045C127.337 33.825 129.298 34.1733 131.865 35.09C134.065 35.86 135.733 36.8867 136.87 38.17C137.273 38.6467 137.567 39.1967 137.75 39.82C137.97 40.4067 138.08 41.0117 138.08 41.635C138.08 42.2217 138.08 42.8633 138.08 43.56C138.08 43.8533 138.117 44.4217 138.19 45.265C138.3 46.0717 138.3 46.7683 138.19 47.355C138.08 47.9417 137.787 48.5283 137.31 49.115C137.567 49.335 137.805 49.5733 138.025 49.83C138.282 50.0867 138.483 50.3067 138.63 50.49C138.777 50.6367 138.942 50.8933 139.125 51.26C139.345 51.59 139.492 51.81 139.565 51.92C139.638 51.9933 139.785 52.25 140.005 52.69C140.225 53.0933 140.353 53.3317 140.39 53.405ZM123.12 44.55C123.12 45.1 123.047 45.65 122.9 46.2C122.753 46.7133 122.68 47.1717 122.68 47.575C122.717 47.9417 122.882 48.4183 123.175 49.005C123.652 48.9317 124.66 48.8767 126.2 48.84C127.777 48.8033 128.84 48.6383 129.39 48.345C129.61 48.235 129.812 48.1067 129.995 47.96C130.215 47.7767 130.398 47.5933 130.545 47.41C130.728 47.19 130.875 47.0067 130.985 46.86C131.132 46.6767 131.26 46.4567 131.37 46.2C131.48 45.9433 131.572 45.7417 131.645 45.595C131.718 45.4483 131.792 45.2467 131.865 44.99C131.938 44.6967 131.975 44.5133 131.975 44.44C132.012 44.33 132.048 44.1283 132.085 43.835C132.158 43.5417 132.213 43.3767 132.25 43.34C132.617 41.5067 131.572 40.37 129.115 39.93C128.015 39.7467 126.127 39.8383 123.45 40.205C123.157 40.8283 122.992 41.3233 122.955 41.69C122.918 42.02 122.937 42.46 123.01 43.01C123.083 43.56 123.12 44.0733 123.12 44.55ZM124 54.23L124.055 54.285L124.165 54.34C124.202 54.0833 124.348 54.1567 124.605 54.56C124.788 54.8533 124.788 55 124.605 55C124.495 55 124.385 54.8717 124.275 54.615C124.165 54.3583 124.073 54.23 124 54.23ZM135.165 62.315C135.495 62.0583 135.752 61.82 135.935 61.6C136.118 61.38 136.21 61.105 136.21 60.775C136.247 60.445 136.265 60.2067 136.265 60.06C136.265 59.9133 136.192 59.6017 136.045 59.125C135.898 58.6483 135.825 58.3367 135.825 58.19C135.752 57.9333 135.788 57.42 135.935 56.65C136.118 55.88 136.155 55.1467 136.045 54.45C135.972 53.7533 135.623 53.185 135 52.745C135 52.635 134.67 52.745 134.01 53.075C133.35 53.405 132.433 53.79 131.26 54.23C130.123 54.67 129.115 54.9083 128.235 54.945C127.722 54.9817 126.915 54.9267 125.815 54.78C124.715 54.5967 123.945 54.505 123.505 54.505C124.238 57.475 124.642 59.3083 124.715 60.005C124.788 60.7383 124.697 61.875 124.44 63.415C124.22 64.955 124.092 65.89 124.055 66.22C124.422 66.22 124.935 66.11 125.595 65.89C126.255 65.67 127.062 65.3767 128.015 65.01C128.968 64.6067 129.683 64.3317 130.16 64.185C130.453 64.075 130.985 63.91 131.755 63.69C132.562 63.47 133.222 63.2683 133.735 63.085C134.285 62.865 134.762 62.6083 135.165 62.315ZM166.964 58.025C167.221 59.3817 167.294 60.4267 167.184 61.16C167.074 62.15 166.763 63.1217 166.249 64.075C166.213 64.1483 166.029 64.57 165.699 65.34C165.406 66.0733 165.131 66.605 164.874 66.935C164.618 67.2283 164.123 67.54 163.389 67.87C162.656 68.1633 162.253 68.3283 162.179 68.365C161.923 68.5483 161.629 68.695 161.299 68.805C161.006 68.915 160.658 69.0433 160.254 69.19C159.888 69.3 159.613 69.41 159.429 69.52C158.329 69.96 157.394 70.2533 156.624 70.4C155.598 70.5833 154.663 70.6017 153.819 70.455C153.599 70.4183 153.123 70.455 152.389 70.565C151.656 70.6383 151.161 70.6017 150.904 70.455C150.611 70.345 150.226 70.0517 149.749 69.575C149.309 69.0983 148.979 68.7867 148.759 68.64C148.649 68.6033 148.631 68.42 148.704 68.09C148.814 67.76 148.833 67.5583 148.759 67.485C148.576 67.0817 148.264 66.55 147.824 65.89C147.421 65.23 147.091 64.6433 146.834 64.13C146.578 63.6167 146.431 63.1033 146.394 62.59C146.358 61.9667 146.559 60.9767 146.999 59.62C147.183 58.9967 147.604 58.1167 148.264 56.98C148.448 56.6867 148.778 56.3017 149.254 55.825C149.768 55.3483 150.098 55 150.244 54.78C150.978 53.79 151.638 53.0933 152.224 52.69C152.408 52.58 152.646 52.415 152.939 52.195C153.269 51.9383 153.563 51.7367 153.819 51.59C154.113 51.4067 154.406 51.2783 154.699 51.205C154.993 51.095 155.451 51.0033 156.074 50.93C156.698 50.8567 157.174 50.7833 157.504 50.71C157.541 50.6733 157.614 50.71 157.724 50.82C157.834 50.93 157.908 50.985 157.944 50.985C158.128 50.9483 158.421 50.9117 158.824 50.875C159.228 50.8383 159.521 50.82 159.704 50.82C159.888 50.82 160.089 50.875 160.309 50.985C160.566 51.095 160.786 51.2783 160.969 51.535C162.473 52.0483 163.426 52.4517 163.829 52.745C164.233 53.0017 164.599 53.4967 164.929 54.23C165.259 54.9267 165.461 55.2933 165.534 55.33C165.571 55.44 165.663 55.605 165.809 55.825C165.993 56.045 166.121 56.2283 166.194 56.375C166.304 56.485 166.414 56.65 166.524 56.87C166.634 57.0533 166.726 57.2367 166.799 57.42C166.873 57.6033 166.928 57.805 166.964 58.025ZM160.694 63.36C160.951 62.7733 161.024 62.2417 160.914 61.765C160.804 61.2883 160.676 60.94 160.529 60.72C160.383 60.5 160.126 60.225 159.759 59.895C158.513 58.685 157.706 57.7867 157.339 57.2C156.973 56.5767 156.111 56.5217 154.754 57.035C154.608 57.1083 154.168 57.145 153.434 57.145C152.738 57.1083 152.353 57.2183 152.279 57.475C151.326 58.465 150.721 59.9133 150.464 61.82C150.318 62.8467 150.336 63.4883 150.519 63.745C150.739 64.0017 150.978 64.24 151.234 64.46C151.528 64.6433 151.784 64.8083 152.004 64.955C152.261 65.065 152.573 65.175 152.939 65.285C153.343 65.3583 153.636 65.4133 153.819 65.45C154.039 65.4867 154.351 65.5417 154.754 65.615C155.194 65.6883 155.469 65.725 155.579 65.725C156.936 65.9817 158.366 65.5417 159.869 64.405C160.346 64.0383 160.621 63.69 160.694 63.36ZM191.457 58.025C191.713 59.3817 191.787 60.4267 191.677 61.16C191.567 62.15 191.255 63.1217 190.742 64.075C190.705 64.1483 190.522 64.57 190.192 65.34C189.898 66.0733 189.623 66.605 189.367 66.935C189.11 67.2283 188.615 67.54 187.882 67.87C187.148 68.1633 186.745 68.3283 186.672 68.365C186.415 68.5483 186.122 68.695 185.792 68.805C185.498 68.915 185.15 69.0433 184.747 69.19C184.38 69.3 184.105 69.41 183.922 69.52C182.822 69.96 181.887 70.2533 181.117 70.4C180.09 70.5833 179.155 70.6017 178.312 70.455C178.092 70.4183 177.615 70.455 176.882 70.565C176.148 70.6383 175.653 70.6017 175.397 70.455C175.103 70.345 174.718 70.0517 174.242 69.575C173.802 69.0983 173.472 68.7867 173.252 68.64C173.142 68.6033 173.123 68.42 173.197 68.09C173.307 67.76 173.325 67.5583 173.252 67.485C173.068 67.0817 172.757 66.55 172.317 65.89C171.913 65.23 171.583 64.6433 171.327 64.13C171.07 63.6167 170.923 63.1033 170.887 62.59C170.85 61.9667 171.052 60.9767 171.492 59.62C171.675 58.9967 172.097 58.1167 172.757 56.98C172.94 56.6867 173.27 56.3017 173.747 55.825C174.26 55.3483 174.59 55 174.737 54.78C175.47 53.79 176.13 53.0933 176.717 52.69C176.9 52.58 177.138 52.415 177.432 52.195C177.762 51.9383 178.055 51.7367 178.312 51.59C178.605 51.4067 178.898 51.2783 179.192 51.205C179.485 51.095 179.943 51.0033 180.567 50.93C181.19 50.8567 181.667 50.7833 181.997 50.71C182.033 50.6733 182.107 50.71 182.217 50.82C182.327 50.93 182.4 50.985 182.437 50.985C182.62 50.9483 182.913 50.9117 183.317 50.875C183.72 50.8383 184.013 50.82 184.197 50.82C184.38 50.82 184.582 50.875 184.802 50.985C185.058 51.095 185.278 51.2783 185.462 51.535C186.965 52.0483 187.918 52.4517 188.322 52.745C188.725 53.0017 189.092 53.4967 189.422 54.23C189.752 54.9267 189.953 55.2933 190.027 55.33C190.063 55.44 190.155 55.605 190.302 55.825C190.485 56.045 190.613 56.2283 190.687 56.375C190.797 56.485 190.907 56.65 191.017 56.87C191.127 57.0533 191.218 57.2367 191.292 57.42C191.365 57.6033 191.42 57.805 191.457 58.025ZM185.187 63.36C185.443 62.7733 185.517 62.2417 185.407 61.765C185.297 61.2883 185.168 60.94 185.022 60.72C184.875 60.5 184.618 60.225 184.252 59.895C183.005 58.685 182.198 57.7867 181.832 57.2C181.465 56.5767 180.603 56.5217 179.247 57.035C179.1 57.1083 178.66 57.145 177.927 57.145C177.23 57.1083 176.845 57.2183 176.772 57.475C175.818 58.465 175.213 59.9133 174.957 61.82C174.81 62.8467 174.828 63.4883 175.012 63.745C175.232 64.0017 175.47 64.24 175.727 64.46C176.02 64.6433 176.277 64.8083 176.497 64.955C176.753 65.065 177.065 65.175 177.432 65.285C177.835 65.3583 178.128 65.4133 178.312 65.45C178.532 65.4867 178.843 65.5417 179.247 65.615C179.687 65.6883 179.962 65.725 180.072 65.725C181.428 65.9817 182.858 65.5417 184.362 64.405C184.838 64.0383 185.113 63.69 185.187 63.36ZM215.124 69.685C214.83 69.7217 214.39 69.3733 213.804 68.64C213.217 67.9067 212.722 67.43 212.319 67.21C212.099 67.1 211.494 67.1183 210.504 67.265C209.514 67.375 208.854 67.2833 208.524 66.99C208.45 66.9167 208.01 66.6417 207.204 66.165C206.434 65.6883 205.884 65.285 205.554 64.955C205.297 64.6617 205.004 64.13 204.674 63.36C204.344 62.59 204.16 62.15 204.124 62.04C203.977 61.82 203.904 61.4533 203.904 60.94C203.904 60.39 203.794 59.95 203.574 59.62C203.684 60.0967 203.445 60.555 202.859 60.995C202.272 61.3983 201.924 61.71 201.814 61.93C201.667 62.2233 201.557 62.5533 201.484 62.92C201.447 63.2867 201.392 63.745 201.319 64.295C201.282 64.8083 201.245 65.1567 201.209 65.34C201.172 65.7433 201.264 66.3483 201.484 67.155C201.74 67.9617 201.869 68.53 201.869 68.86C201.869 69.0067 201.85 69.1533 201.814 69.3C201.777 69.4467 201.74 69.575 201.704 69.685C201.667 69.795 201.612 69.9233 201.539 70.07C201.465 70.2167 201.392 70.3267 201.319 70.4C201.282 70.4733 201.19 70.6017 201.044 70.785C200.934 70.9317 200.842 71.0417 200.769 71.115C200.732 71.1517 200.622 71.2617 200.439 71.445C200.292 71.6283 200.2 71.7383 200.164 71.775C200.054 71.775 199.944 71.7383 199.834 71.665C199.76 71.6283 199.687 71.5367 199.614 71.39C199.54 71.2067 199.467 71.0417 199.394 70.895C199.357 70.7117 199.302 70.4733 199.229 70.18C199.192 69.85 199.137 69.5567 199.064 69.3C199.027 69.0433 198.972 68.695 198.899 68.255C198.862 67.815 198.807 67.4117 198.734 67.045C198.624 66.495 198.587 65.6517 198.624 64.515C198.66 63.3417 198.66 62.3517 198.624 61.545C198.587 61.215 198.349 60.775 197.909 60.225C197.505 59.675 197.267 59.2533 197.194 58.96C197.084 58.85 197.047 58.3917 197.084 57.585C197.157 56.7417 197.194 56.2467 197.194 56.1C197.194 55.77 196.919 55.3483 196.369 54.835C195.855 54.285 195.544 53.8817 195.434 53.625C195.36 53.3317 195.324 53.02 195.324 52.69C195.324 52.3233 195.324 51.92 195.324 51.48C195.36 51.04 195.379 50.7283 195.379 50.545C195.379 50.1783 195.507 49.6833 195.764 49.06C196.057 48.4367 196.24 47.9967 196.314 47.74C196.35 47.4467 196.534 46.9883 196.864 46.365C197.23 45.7417 197.432 45.2833 197.469 44.99C197.469 44.6233 197.157 44.1467 196.534 43.56C195.947 42.9367 195.617 42.4967 195.544 42.24C195.47 41.7267 195.434 41.3783 195.434 41.195C195.47 40.975 195.544 40.6267 195.654 40.15C195.764 39.6367 195.819 39.325 195.819 39.215C195.929 38.3717 196.295 37.4917 196.919 36.575C197.615 35.6217 198.294 35.145 198.954 35.145C199.284 35.585 199.999 36.135 201.099 36.795C202.235 37.455 202.859 38.06 202.969 38.61C203.115 39.1967 202.95 40.095 202.474 41.305C201.997 42.515 201.777 43.3767 201.814 43.89C201.814 44.2933 201.667 45.1367 201.374 46.42C201.08 47.7033 201.007 48.6933 201.154 49.39C201.19 49.39 201.3 49.335 201.484 49.225C201.704 49.0783 201.905 48.9317 202.089 48.785C202.309 48.6383 202.437 48.5467 202.474 48.51C202.657 48.18 202.987 47.5567 203.464 46.64C203.94 45.7233 204.325 45.1 204.619 44.77C205.315 44 206.067 43.395 206.874 42.955C207.717 42.4783 208.304 42.24 208.634 42.24C208.634 42.5333 208.45 43.12 208.084 44C207.754 44.88 207.625 45.5033 207.699 45.87C207.772 46.2367 208.01 46.75 208.414 47.41C208.854 48.07 209.092 48.6017 209.129 49.005C209.202 49.335 209.33 49.8117 209.514 50.435C209.697 51.0217 209.807 51.48 209.844 51.81C209.844 51.9567 209.77 52.415 209.624 53.185C209.514 53.9183 209.532 54.4317 209.679 54.725C209.789 55.0917 209.807 55.6783 209.734 56.485C209.66 57.2917 209.66 57.9517 209.734 58.465C209.807 58.8317 209.954 59.2167 210.174 59.62C210.394 60.0233 210.65 60.445 210.944 60.885C211.274 61.325 211.512 61.6733 211.659 61.93C211.769 62.1133 211.915 62.425 212.099 62.865C212.282 63.2683 212.465 63.6533 212.649 64.02C212.832 64.35 213.034 64.6617 213.254 64.955C213.474 65.2117 213.987 65.4317 214.794 65.615C215.637 65.7617 216.169 66 216.389 66.33C217.159 66.66 217.342 67.3017 216.939 68.255C216.572 69.2083 215.967 69.685 215.124 69.685ZM251.444 37.565C248.657 37.7483 247.264 38.8667 247.264 40.92C247.007 41.3967 246.824 41.965 246.714 42.625C246.641 43.2483 246.732 44 246.989 44.88C247.246 45.7233 247.759 46.4567 248.529 47.08C249.006 47.4833 250.142 47.6483 251.939 47.575C253.772 47.465 255.037 47.6117 255.734 48.015C256.357 48.455 256.926 49.555 257.439 51.315C257.989 53.0383 258.539 54.065 259.089 54.395C259.786 54.9083 260.574 55.33 261.454 55.66C262.371 55.99 263.086 56.265 263.599 56.485C264.112 56.6683 264.406 56.8883 264.479 57.145C264.589 57.585 264.644 57.9883 264.644 58.355C264.644 58.7217 264.589 59.0883 264.479 59.455C264.406 59.8217 264.314 60.1333 264.204 60.39C264.094 60.6467 263.929 60.9767 263.709 61.38C263.526 61.7833 263.379 62.1133 263.269 62.37C263.159 62.6633 262.994 63.5983 262.774 65.175C262.591 66.7517 262.169 67.7967 261.509 68.31C260.959 68.75 259.932 69.0983 258.429 69.355C256.926 69.6117 255.972 69.8133 255.569 69.96C254.432 70.4 252.526 70.8033 249.849 71.17C249.482 71.2067 248.786 71.3167 247.759 71.5C246.769 71.72 246.127 71.83 245.834 71.83C245.541 71.83 244.936 71.8117 244.019 71.775C242.626 71.5183 241.526 71.2067 240.719 70.84C239.912 70.4367 239.399 69.8317 239.179 69.025C236.759 69.025 236.777 68.53 239.234 67.54C239.601 67.3933 240.022 67.2283 240.499 67.045C240.866 66.935 241.452 66.605 242.259 66.055C243.066 65.4683 243.781 65.175 244.404 65.175C244.771 65.175 245.999 65.2483 248.089 65.395C248.896 65.4317 250.069 65.3033 251.609 65.01C253.149 64.68 254.139 64.4967 254.579 64.46C255.642 64.35 256.687 64.35 257.714 64.46C258.777 64.5333 259.676 64.4967 260.409 64.35C261.179 64.2033 261.564 63.8917 261.564 63.415C261.857 63.195 261.857 62.9567 261.564 62.7C261.271 62.4433 260.904 62.205 260.464 61.985C260.024 61.7283 259.804 61.545 259.804 61.435C259.657 61.0683 259.657 60.5917 259.804 60.005C259.951 59.3817 259.951 58.63 259.804 57.75C259.657 56.8333 259.272 56.1367 258.649 55.66C258.246 55.33 257.329 55.0733 255.899 54.89C254.469 54.67 253.479 54.34 252.929 53.9C252.489 53.5333 251.701 53.0383 250.564 52.415C249.464 51.7917 248.676 51.26 248.199 50.82C247.979 50.6367 247.319 50.105 246.219 49.225C245.156 48.345 244.386 47.6483 243.909 47.135C243.322 46.5483 242.717 45.595 242.094 44.275C241.471 42.9183 241.141 42.185 241.104 42.075C239.564 39.5083 239.161 37.565 239.894 36.245C240.077 35.915 240.444 35.7133 240.994 35.64C241.581 35.5667 242.332 35.53 243.249 35.53C244.202 35.4933 244.991 35.3833 245.614 35.2C246.017 35.1267 246.476 34.815 246.989 34.265C247.539 33.715 248.126 33.1833 248.749 32.67C249.372 32.1567 250.014 31.8817 250.674 31.845C251.004 31.8083 251.811 31.8267 253.094 31.9C254.377 31.9367 255.422 31.9367 256.229 31.9C256.779 31.9 257.696 31.7717 258.979 31.515C260.262 31.2583 261.216 31.1483 261.839 31.185C263.196 31.2583 264.497 31.6067 265.744 32.23C267.027 32.8533 267.669 33.3667 267.669 33.77C268.292 34.6133 268.457 35.3283 268.164 35.915C267.907 36.465 267.449 36.905 266.789 37.235C266.129 37.5283 265.286 37.73 264.259 37.84C263.929 37.8767 263.012 38.0783 261.509 38.445C260.006 38.8117 258.796 38.9767 257.879 38.94C257.146 38.94 256.046 38.7017 254.579 38.225C253.149 37.7483 252.104 37.5283 251.444 37.565ZM278.266 55C278.67 56.0633 278.853 57.1633 278.816 58.3C278.816 58.63 278.853 59.1617 278.926 59.895C279.036 60.6283 279.073 61.1783 279.036 61.545C278.963 61.9483 278.706 62.48 278.266 63.14C277.826 63.7633 277.588 64.24 277.551 64.57C277.295 66.8433 276.946 68.3833 276.506 69.19C276.36 68.8967 276.158 68.53 275.901 68.09C275.645 67.6133 275.443 67.2283 275.296 66.935C275.15 66.6417 274.875 66.22 274.471 65.67C274.105 65.12 273.83 64.68 273.646 64.35C273.536 64.35 273.133 63.195 272.436 60.885C272.363 60.7017 272.07 60.2067 271.556 59.4C271.043 58.5933 270.768 57.8967 270.731 57.31C270.695 57.31 270.75 57.2 270.896 56.98C271.08 56.7233 271.3 56.32 271.556 55.77C271.813 55.22 271.996 54.6333 272.106 54.01C272.143 53.8267 272.363 53.35 272.766 52.58C273.206 51.7733 273.408 51.1317 273.371 50.655C273.371 50.3617 273.316 50.0317 273.206 49.665C273.096 49.2983 272.95 48.895 272.766 48.455C272.583 47.9783 272.455 47.5933 272.381 47.3C271.978 45.9433 271.758 44.6783 271.721 43.505C271.501 43.505 271.336 43.4867 271.226 43.45C271.116 43.3767 271.061 43.2667 271.061 43.12C271.098 42.9733 271.135 42.845 271.171 42.735C271.245 42.5883 271.373 42.35 271.556 42.02C271.666 41.8367 271.74 41.69 271.776 41.58C271.85 41.47 271.923 41.3233 271.996 41.14C272.106 40.92 272.198 40.7183 272.271 40.535C272.345 40.3517 272.418 40.1683 272.491 39.985C272.748 39.2883 272.931 38.5183 273.041 37.675C273.188 36.795 273.261 36.1167 273.261 35.64C273.298 35.1267 273.335 34.8517 273.371 34.815C274.031 34.815 274.563 35.2 274.966 35.97C275.37 36.74 275.755 37.95 276.121 39.6C276.305 40.4067 276.8 41.2683 277.606 42.185C278.67 43.4317 279.238 44.5683 279.311 45.595C279.348 45.9617 279.018 46.4567 278.321 47.08C277.661 47.7033 277.258 48.1617 277.111 48.455C276.891 49.005 276.8 50.1967 276.836 52.03C276.836 52.3967 277.056 52.9283 277.496 53.625C277.936 54.3217 278.193 54.78 278.266 55ZM303.444 58.025C303.701 59.3817 303.774 60.4267 303.664 61.16C303.554 62.15 303.242 63.1217 302.729 64.075C302.692 64.1483 302.509 64.57 302.179 65.34C301.886 66.0733 301.611 66.605 301.354 66.935C301.097 67.2283 300.602 67.54 299.869 67.87C299.136 68.1633 298.732 68.3283 298.659 68.365C298.402 68.5483 298.109 68.695 297.779 68.805C297.486 68.915 297.137 69.0433 296.734 69.19C296.367 69.3 296.092 69.41 295.909 69.52C294.809 69.96 293.874 70.2533 293.104 70.4C292.077 70.5833 291.142 70.6017 290.299 70.455C290.079 70.4183 289.602 70.455 288.869 70.565C288.136 70.6383 287.641 70.6017 287.384 70.455C287.091 70.345 286.706 70.0517 286.229 69.575C285.789 69.0983 285.459 68.7867 285.239 68.64C285.129 68.6033 285.111 68.42 285.184 68.09C285.294 67.76 285.312 67.5583 285.239 67.485C285.056 67.0817 284.744 66.55 284.304 65.89C283.901 65.23 283.571 64.6433 283.314 64.13C283.057 63.6167 282.911 63.1033 282.874 62.59C282.837 61.9667 283.039 60.9767 283.479 59.62C283.662 58.9967 284.084 58.1167 284.744 56.98C284.927 56.6867 285.257 56.3017 285.734 55.825C286.247 55.3483 286.577 55 286.724 54.78C287.457 53.79 288.117 53.0933 288.704 52.69C288.887 52.58 289.126 52.415 289.419 52.195C289.749 51.9383 290.042 51.7367 290.299 51.59C290.592 51.4067 290.886 51.2783 291.179 51.205C291.472 51.095 291.931 51.0033 292.554 50.93C293.177 50.8567 293.654 50.7833 293.984 50.71C294.021 50.6733 294.094 50.71 294.204 50.82C294.314 50.93 294.387 50.985 294.424 50.985C294.607 50.9483 294.901 50.9117 295.304 50.875C295.707 50.8383 296.001 50.82 296.184 50.82C296.367 50.82 296.569 50.875 296.789 50.985C297.046 51.095 297.266 51.2783 297.449 51.535C298.952 52.0483 299.906 52.4517 300.309 52.745C300.712 53.0017 301.079 53.4967 301.409 54.23C301.739 54.9267 301.941 55.2933 302.014 55.33C302.051 55.44 302.142 55.605 302.289 55.825C302.472 56.045 302.601 56.2283 302.674 56.375C302.784 56.485 302.894 56.65 303.004 56.87C303.114 57.0533 303.206 57.2367 303.279 57.42C303.352 57.6033 303.407 57.805 303.444 58.025ZM297.174 63.36C297.431 62.7733 297.504 62.2417 297.394 61.765C297.284 61.2883 297.156 60.94 297.009 60.72C296.862 60.5 296.606 60.225 296.239 59.895C294.992 58.685 294.186 57.7867 293.819 57.2C293.452 56.5767 292.591 56.5217 291.234 57.035C291.087 57.1083 290.647 57.145 289.914 57.145C289.217 57.1083 288.832 57.2183 288.759 57.475C287.806 58.465 287.201 59.9133 286.944 61.82C286.797 62.8467 286.816 63.4883 286.999 63.745C287.219 64.0017 287.457 64.24 287.714 64.46C288.007 64.6433 288.264 64.8083 288.484 64.955C288.741 65.065 289.052 65.175 289.419 65.285C289.822 65.3583 290.116 65.4133 290.299 65.45C290.519 65.4867 290.831 65.5417 291.234 65.615C291.674 65.6883 291.949 65.725 292.059 65.725C293.416 65.9817 294.846 65.5417 296.349 64.405C296.826 64.0383 297.101 63.69 297.174 63.36ZM327.386 54.56C328.046 55.2567 328.376 56.3017 328.376 57.695C327.826 58.5383 326.909 59.1067 325.626 59.4C325.076 59.4367 324.746 59.4733 324.636 59.51C324.563 59.51 324.233 59.4367 323.646 59.29C323.096 59.1067 322.748 58.9967 322.601 58.96C321.281 58.6667 320.144 58.63 319.191 58.85C319.191 59.18 319.228 59.5467 319.301 59.95C319.411 60.3167 319.576 60.775 319.796 61.325C320.053 61.875 320.199 62.2233 320.236 62.37C320.309 62.5533 320.419 62.865 320.566 63.305C320.749 63.7083 320.878 64.02 320.951 64.24C321.024 64.46 321.098 64.7167 321.171 65.01C321.244 65.3033 321.263 65.56 321.226 65.78C321.153 66.9167 320.639 67.7967 319.686 68.42C319.613 68.4933 319.246 68.7133 318.586 69.08C317.963 69.41 317.486 69.7217 317.156 70.015C316.973 70.015 316.789 69.9967 316.606 69.96C316.459 69.9233 316.313 69.8683 316.166 69.795C316.056 69.685 315.964 69.5933 315.891 69.52C315.818 69.41 315.744 69.2817 315.671 69.135C315.598 68.9517 315.543 68.7867 315.506 68.64C315.506 68.4933 315.488 68.2917 315.451 68.035C315.414 67.7783 315.396 67.5767 315.396 67.43C315.396 67.2467 315.378 66.99 315.341 66.66C315.341 66.33 315.341 66.0733 315.341 65.89C315.341 65.5967 315.286 65.12 315.176 64.46C315.103 63.8 315.066 63.305 315.066 62.975C315.066 62.4617 315.029 61.8933 314.956 61.27C314.919 60.61 314.901 60.2433 314.901 60.17C314.791 60.17 314.223 60.0417 313.196 59.785C312.169 59.5283 311.344 59.3633 310.721 59.29C310.611 59.29 310.354 59.2717 309.951 59.235C309.548 59.1983 309.254 59.18 309.071 59.18C308.924 59.1433 308.686 59.0883 308.356 59.015C308.026 58.9417 307.769 58.85 307.586 58.74C307.439 58.63 307.293 58.4833 307.146 58.3C306.999 58.1167 306.889 57.8967 306.816 57.64C307.476 56.0633 308.631 55.165 310.281 54.945C310.428 54.945 310.978 54.9083 311.931 54.835C312.884 54.7617 313.691 54.6517 314.351 54.505C314.058 53.1483 313.929 52.1583 313.966 51.535C314.003 50.985 314.388 49.995 315.121 48.565C315.268 48.3083 315.451 48.0883 315.671 47.905C315.891 47.7217 316.184 47.5383 316.551 47.355C316.954 47.135 317.229 46.9883 317.376 46.915C317.853 46.915 318.201 47.025 318.421 47.245C318.641 47.465 318.898 47.8867 319.191 48.51C319.264 48.6933 319.521 49.1333 319.961 49.83C320.401 50.49 320.658 51.0217 320.731 51.425C320.804 51.6817 320.804 52.03 320.731 52.47C320.658 52.91 320.584 53.2583 320.511 53.515C320.474 53.7717 320.401 54.065 320.291 54.395C320.181 54.725 320.126 54.9267 320.126 55C320.346 55.0367 320.969 54.8167 321.996 54.34C323.023 53.8633 323.848 53.6433 324.471 53.68C325.974 53.8267 326.946 54.12 327.386 54.56Z" fill="black"/>
</g>
<defs>
<filter id="filter0_f_171_120" x="0" y="0" width="456" height="183" filterUnits="userSpaceOnUse" color-interpolation-filters="sRGB">
<feFlood flood-opacity="0" result="BackgroundImageFix"/>
<feBlend mode="normal" in="SourceGraphic" in2="BackgroundImageFix" result="shape"/>
<feGaussianBlur stdDeviation="36" result="effect1_foregroundBlur_171_120"/>
</filter>
<clipPath id="clip0_171_120">
<rect x="59" y="6" width="325" height="99" rx="49.5" fill="white"/>
</clipPath>
</defs>
</svg>