<svg width="2657" height="184" viewBox="0 0 2657 184" fill="none" xmlns="http://www.w3.org/2000/svg">
<g filter="url(#filter0_dd_677_1862)">
<path d="M1480.55 43.4462L1449.35 74.8928L1418.14 43.4462L1408.15 33.3833H1374.19L1364.21 43.4462H1206.91L1191.19 59.2957L1175.46 43.4462H1063.1L1056.86 49.7358H1035.14L1028.9 43.4462H803.448L793.461 53.5095L783.474 43.4462L752.265 12L727.547 36.9066H4.5V171.997H2652.5V56.2762H1909.49L1905.74 60.0496L1902 56.2762H1789.5V74.8928H1665.81V56.2762H1658.82V74.8928H1607.89V56.2762H1559.95L1547.22 43.4462H1506.52L1496.53 53.5095L1486.55 43.4462H1480.55Z" fill="#FF453A"/>
</g>
<path d="M1612 75V56.12H1612.96V75H1612ZM1613.92 75V56.12H1614.88V75H1613.92ZM1615.84 75V56.12H1618.72V75H1615.84ZM1619.68 75V56.12H1620.64V75H1619.68ZM1623.52 75V56.12H1626.4V75H1623.52ZM1627.38 75V56.12H1630.26V75H1627.38ZM1631.22 75V56.12H1632.18V75H1631.22ZM1633.14 75V56.12H1636.02V75H1633.14ZM1638.9 75V56.12H1639.86V75H1638.9ZM1640.82 75V56.12H1641.78V75H1640.82ZM1642.75 75V56.12H1645.63V75H1642.75ZM1646.59 75V56.12H1647.55V75H1646.59ZM1648.51 75V56.12H1651.39V75H1648.51ZM1652.35 75V56.12H1653.31V75H1652.35ZM1656.19 75V56.12H1657.15V75H1656.19Z" fill="#FF453A"/>
<path d="M1673.28 58.576H1674.46V70H1673.28V58.576ZM1676.79 68.528V63.504L1678.26 62.032H1682.36L1683.83 63.504V68.528L1682.36 70H1678.26L1676.79 68.528ZM1681.85 68.944L1682.65 68.16V63.872L1681.85 63.088H1678.77L1677.97 63.872V68.16L1678.77 68.944H1681.85ZM1685.84 68.688V66.656L1687.15 65.36H1691.4V63.84L1690.6 63.056H1687.88L1687.08 63.84V64.496H1685.9V63.504L1687.37 62.032H1691.1L1692.57 63.504V70H1691.44V68.592L1689.96 70H1687.15L1685.84 68.688ZM1689.72 68.976L1691.4 67.36V66.384H1687.66L1687.02 67.008V68.352L1687.66 68.976H1689.72ZM1694.73 68.528V63.504L1696.2 62.032H1699.27L1700.58 63.184V58.576H1701.77V70H1700.62V68.544L1699.16 70H1696.2L1694.73 68.528ZM1698.9 68.944L1700.58 67.264V64.432L1699.05 63.088H1696.71L1695.91 63.872V68.16L1696.71 68.944H1698.9ZM1704.09 60.208V59.504L1704.57 59.024H1705.27L1705.75 59.504V60.208L1705.27 60.688H1704.57L1704.09 60.208ZM1704.33 62.032H1705.51V70H1704.33V62.032ZM1708.08 62.032H1709.23V63.728L1710.92 62.032H1713.37L1714.84 63.504V70H1713.66V63.872L1712.86 63.088H1711.24L1709.26 65.072V70H1708.08V62.032ZM1724.05 62.032V72.032L1722.59 73.488H1718.64L1717.41 72.256V71.28H1718.59V71.872L1719.15 72.432H1722.06L1722.86 71.648V68.672L1721.39 70H1718.48L1717.01 68.528V63.504L1718.48 62.032H1721.5L1722.9 63.424V62.032H1724.05ZM1722.86 64.768L1721.18 63.088H1718.99L1718.19 63.872V68.16L1718.99 68.944H1721.2L1722.86 67.392V64.768ZM1730.12 68.688V66.656L1731.43 65.36H1735.68V63.84L1734.88 63.056H1732.16L1731.36 63.84V64.496H1730.18V63.504L1731.65 62.032H1735.38L1736.85 63.504V70H1735.72V68.592L1734.24 70H1731.43L1730.12 68.688ZM1734 68.976L1735.68 67.36V66.384H1731.94L1731.3 67.008V68.352L1731.94 68.976H1734ZM1738.77 68.688V67.696H1739.95V68.352L1740.59 68.976H1743.54L1744.18 68.352V67.12L1743.54 66.48H1740.1L1738.83 65.216V63.344L1740.14 62.032H1743.89L1745.2 63.344V64.336H1744.02V63.68L1743.38 63.056H1740.66L1740.02 63.68V64.848L1740.66 65.488H1744.05L1745.36 66.8V68.688L1744.05 70H1740.08L1738.77 68.688ZM1746.96 68.688V67.696H1748.14V68.352L1748.78 68.976H1751.72L1752.36 68.352V67.12L1751.72 66.48H1748.28L1747.02 65.216V63.344L1748.33 62.032H1752.08L1753.39 63.344V64.336H1752.2V63.68L1751.56 63.056H1748.84L1748.2 63.68V64.848L1748.84 65.488H1752.24L1753.55 66.8V68.688L1752.24 70H1748.27L1746.96 68.688ZM1755.38 68.528V63.504L1756.86 62.032H1760.87L1762.36 63.504V66.368H1756.57V68.16L1757.37 68.944H1760.36L1761.16 68.16V67.552H1762.34V68.528L1760.87 70H1756.86L1755.38 68.528ZM1761.18 65.344V63.872L1760.38 63.088H1757.37L1756.57 63.872V65.344H1761.18ZM1765.23 68.528V63.072H1763.79V62.032H1765.26V59.44H1766.42V62.032H1768.91V63.072H1766.42V68.16L1767.22 68.96H1768.91V70H1766.7L1765.23 68.528ZM1770.27 68.688V67.696H1771.45V68.352L1772.09 68.976H1775.04L1775.68 68.352V67.12L1775.04 66.48H1771.6L1770.33 65.216V63.344L1771.64 62.032H1775.39L1776.7 63.344V64.336H1775.52V63.68L1774.88 63.056H1772.16L1771.52 63.68V64.848L1772.16 65.488H1775.55L1776.86 66.8V68.688L1775.55 70H1771.58L1770.27 68.688ZM1778.33 69.536V68.832L1778.8 68.368H1779.5L1779.96 68.832V69.536L1779.5 70H1778.8L1778.33 69.536ZM1781.63 69.536V68.832L1782.09 68.368H1782.8L1783.26 68.832V69.536L1782.8 70H1782.09L1781.63 69.536ZM1784.93 69.536V68.832L1785.39 68.368H1786.09L1786.56 68.832V69.536L1786.09 70H1785.39L1784.93 69.536Z" fill="#FF453A"/>
<defs>
<filter id="filter0_dd_677_1862" x="0.5" y="0" width="2656" height="183.997" filterUnits="userSpaceOnUse" color-interpolation-filters="sRGB">
<feFlood flood-opacity="0" result="BackgroundImageFix"/>
<feColorMatrix in="SourceAlpha" type="matrix" values="0 0 0 0 0 0 0 0 0 0 0 0 0 0 0 0 0 0 127 0" result="hardAlpha"/>
<feOffset dy="8"/>
<feGaussianBlur stdDeviation="2"/>
<feComposite in2="hardAlpha" operator="out"/>
<feColorMatrix type="matrix" values="0 0 0 0 0 0 0 0 0 0 0 0 0 0 0 0 0 0 0.25 0"/>
<feBlend mode="normal" in2="BackgroundImageFix" result="effect1_dropShadow_677_1862"/>
<feColorMatrix in="SourceAlpha" type="matrix" values="0 0 0 0 0 0 0 0 0 0 0 0 0 0 0 0 0 0 127 0" result="hardAlpha"/>
<feOffset dy="-8"/>
<feGaussianBlur stdDeviation="2"/>
<feComposite in2="hardAlpha" operator="out"/>
<feColorMatrix type="matrix" values="0 0 0 0 0 0 0 0 0 0 0 0 0 0 0 0 0 0 0.25 0"/>
<feBlend mode="normal" in2="effect1_dropShadow_677_1862" result="effect2_dropShadow_677_1862"/>
<feBlend mode="normal" in="SourceGraphic" in2="effect2_dropShadow_677_1862" result="shape"/>
</filter>
</defs>
</svg>
