
<svg width="420" height="96" viewBox="0 0 420 96" fill="none" xmlns="http://www.w3.org/2000/svg">
<path d="M304.176 0L351.082 47.9881L304.176 96H115.824L68.9183 47.9881L115.824 0H304.176Z" fill="#BFACB5"/>
<path d="M339.672 96L386.578 48.004L339.672 0H319.793L366.691 47.9881L319.793 95.9841L339.672 96Z" fill="#BFACB5"/>
<path d="M373.094 96L420 48.004L373.094 0.0159003H353.193L400.098 48.004L353.193 96H373.094Z" fill="#BFACB5"/>
<path d="M80.3282 96L33.4225 48.004L80.3282 0H100.207L53.3087 47.9881L100.207 95.9841L80.3282 96Z" fill="#BFACB5"/>
<path d="M46.9056 96L0 48.004L46.9056 0.0159003H66.8073L19.9017 48.004L66.8073 96H46.9056Z" fill="#BFACB5"/>
<path d="M304.176 0L351.082 47.9881L304.176 96H115.824L68.9183 47.9881L115.824 0H304.176Z" fill="#EA1429"/>
<path d="M339.672 96L386.578 48.004L339.672 0H319.793L366.691 47.9881L319.793 95.9841L339.672 96Z" fill="#EA1429"/>
<path d="M373.094 96L420 48.004L373.094 0.0159003H353.193L400.098 48.004L353.193 96H373.094Z" fill="#EA1429"/>
<path d="M80.3282 96L33.4225 48.004L80.3282 0H100.207L53.3087 47.9881L100.207 95.9841L80.3282 96Z" fill="#EA1429"/>
<path d="M46.9056 96L0 48.004L46.9056 0.0159003H66.8073L19.9017 48.004L66.8073 96H46.9056Z" fill="#EA1429"/>
<path d="M304.176 0L351.082 47.9881L304.176 96H115.824L68.9183 47.9881L115.824 0H304.176Z" fill="#FBEC0A"/>
<path d="M339.672 96L386.578 48.004L339.672 0H319.793L366.691 47.9881L319.793 95.9841L339.672 96Z" fill="#FBEC0A"/>
<path d="M373.094 96L420 48.004L373.094 0.0159003H353.193L400.098 48.004L353.193 96H373.094Z" fill="#FBEC0A"/>
<path d="M80.3282 96L33.4225 48.004L80.3282 0H100.207L53.3087 47.9881L100.207 95.9841L80.3282 96Z" fill="#FBEC0A"/>
<path d="M46.9056 96L0 48.004L46.9056 0.0159003H66.8073L19.9017 48.004L66.8073 96H46.9056Z" fill="#FBEC0A"/>
<path d="M153.18 51.576V59H148.828V52.568L146.908 50.424H139.932V59H135.58V36.6H149.628L153.052 40.056V46.84L150.876 49.048L153.18 51.576ZM139.932 46.84H147.644L148.764 45.72V41.368L147.644 40.248H139.932V46.84ZM157.494 36.6H173.686V40.28H161.846V45.944H172.758V49.56H161.846V55.32H173.686V59H157.494V36.6ZM176.9 55.32V40.28L180.58 36.6H191.716L195.332 40.216V43.64H190.98V41.816L189.476 40.312H182.884L181.252 41.944V53.656L182.884 55.288H189.54L191.108 53.72V50.232H186.308V46.52H195.332V55.32L191.652 59H180.58L176.9 55.32ZM199.325 36.6H203.677V59H199.325V36.6ZM207.849 55.544V52.344H212.137V54.232L213.193 55.288H219.817L220.905 54.2V50.488L219.849 49.432H211.369L207.913 45.976V40.056L211.369 36.6H221.481L224.937 40.056V43.288H220.649V41.368L219.593 40.312H213.257L212.201 41.368V44.664L213.257 45.72H221.737L225.193 49.176V55.48L221.673 59H211.305L207.849 55.544ZM233.299 40.28H226.611V36.6H244.339V40.28H237.651V59H233.299V40.28ZM247.219 36.6H263.411V40.28H251.571V45.944H262.483V49.56H251.571V55.32H263.411V59H247.219V36.6ZM284.545 51.576V59H280.193V52.568L278.273 50.424H271.297V59H266.945V36.6H280.993L284.417 40.056V46.84L282.241 49.048L284.545 51.576ZM271.297 46.84H279.009L280.129 45.72V41.368L279.009 40.248H271.297V46.84Z" fill="#040804"/>
</svg>