<svg width="420" height="96" viewBox="0 0 420 96" fill="none" xmlns="http://www.w3.org/2000/svg">
<path d="M304.176 0L351.082 47.9881L304.176 96H115.824L68.9183 47.9881L115.824 0H304.176Z" fill="#BFACB5"/>
<path d="M339.672 96L386.578 48.004L339.672 0H319.793L366.691 47.9881L319.793 95.9841L339.672 96Z" fill="#BFACB5"/>
<path d="M373.094 96L420 48.004L373.094 0.0159003H353.193L400.098 48.004L353.193 96H373.094Z" fill="#BFACB5"/>
<path d="M80.3282 96L33.4225 48.004L80.3282 0H100.207L53.3087 47.9881L100.207 95.9841L80.3282 96Z" fill="#BFACB5"/>
<path d="M46.9056 96L0 48.004L46.9056 0.0159003H66.8073L19.9017 48.004L66.8073 96H46.9056Z" fill="#BFACB5"/>
<path d="M304.176 0L351.082 47.9881L304.176 96H115.824L68.9183 47.9881L115.824 0H304.176Z" fill="#EA1429"/>
<path d="M339.672 96L386.578 48.004L339.672 0H319.793L366.691 47.9881L319.793 95.9841L339.672 96Z" fill="#EA1429"/>
<path d="M373.094 96L420 48.004L373.094 0.0159003H353.193L400.098 48.004L353.193 96H373.094Z" fill="#EA1429"/>
<path d="M80.3282 96L33.4225 48.004L80.3282 0H100.207L53.3087 47.9881L100.207 95.9841L80.3282 96Z" fill="#EA1429"/>
<path d="M46.9056 96L0 48.004L46.9056 0.0159003H66.8073L19.9017 48.004L66.8073 96H46.9056Z" fill="#EA1429"/>
<path d="M304.176 0L351.082 47.9881L304.176 96H115.824L68.9183 47.9881L115.824 0H304.176Z" fill="#FBEC0A"/>
<path d="M339.672 96L386.578 48.004L339.672 0H319.793L366.691 47.9881L319.793 95.9841L339.672 96Z" fill="#FBEC0A"/>
<path d="M373.094 96L420 48.004L373.094 0.0159003H353.193L400.098 48.004L353.193 96H373.094Z" fill="#FBEC0A"/>
<path d="M80.3282 96L33.4225 48.004L80.3282 0H100.207L53.3087 47.9881L100.207 95.9841L80.3282 96Z" fill="#FBEC0A"/>
<path d="M46.9056 96L0 48.004L46.9056 0.0159003H66.8073L19.9017 48.004L66.8073 96H46.9056Z" fill="#FBEC0A"/>
<path d="M123.58 36.6H137.628L140.828 39.8V46.072L139.548 47.384L141.82 49.688V55.544L138.364 59H123.58V36.6ZM135.388 45.976L136.54 44.824V41.368L135.42 40.248H127.836V45.976H135.388ZM136.156 55.352L137.532 53.976V50.84L136.156 49.464H127.836V55.352H136.156ZM145.017 55.32V40.28L148.697 36.6H160.218L163.898 40.28V55.32L160.218 59H148.697L145.017 55.32ZM157.914 55.288L159.545 53.656V41.944L157.914 40.312H151.002L149.37 41.944V53.656L151.002 55.288H157.914ZM167.744 55.32V40.28L171.424 36.6H182.944L186.624 40.28V55.32L182.944 59H171.424L167.744 55.32ZM180.64 55.288L182.272 53.656V41.944L180.64 40.312H173.728L172.096 41.944V53.656L173.728 55.288H180.64ZM190.79 36.6H195.142V45.976H198.534L203.942 36.6H208.838L202.278 47.768L209.382 59H204.39L198.502 49.688H195.142V59H190.79V36.6ZM220.512 55.544V52.344H224.8V54.232L225.856 55.288H232.48L233.568 54.2V50.488L232.512 49.432H224.032L220.576 45.976V40.056L224.032 36.6H234.144L237.601 40.056V43.288H233.312V41.368L232.256 40.312H225.92L224.864 41.368V44.664L225.92 45.72H234.4L237.856 49.176V55.48L234.336 59H223.968L220.512 55.544ZM241.687 36.6H246.039V55.32H257.239V59H241.687V36.6ZM259.156 55.32V40.28L262.836 36.6H274.356L278.036 40.28V55.32L274.356 59H262.836L259.156 55.32ZM272.052 55.288L273.684 53.656V41.944L272.052 40.312H265.14L263.508 41.944V53.656L265.14 55.288H272.052ZM286.822 40.28H280.134V36.6H297.862V40.28H291.174V59H286.822V40.28Z" fill="#040804"/>
</svg>