<svg xmlns="http://www.w3.org/2000/svg" width="1280" height="338" viewBox="0 0 1280 338" fill="none">
  <g filter="url(#filter0_dd_677_1817)">
    <path d="M2175 56.0027V37.0021L2172.54 37.003L2167.54 42.0039L2162.54 37.003L2139.54 37.0045L2114.54 12.0052L2089.54 37.0033L2073.61 52.9372L2063.17 42.5047H1895.04L1873.61 63.9372L1852.67 43.0061H1842.54L1831.61 53.9386L1818.04 40.3714H1688.67L1679.54 49.5061L1672.76 42.7224H1501.54L1495.82 37.0033L1488.82 30.0056H1461.54L1454.54 37.0033L1416.54 75.0039L1384.54 43.0039H1380.04L1370.04 53.0039L1360.54 43.5039H1319.04L1306.54 56.0039H1298.5V36.9995H1204.5L1179.5 12L1154.5 36.9982L1138.57 52.9321L1128.13 42.4995H960L938.567 63.9321L917.635 43.0009H907.5L896.567 53.9336L883 40.3662H753.635L744.5 49.501L737.716 42.7173H566.5L560.781 36.9982L553.783 30.0005H526.5L519.502 36.9982L481.5 74.9987L449.5 42.9987H445L435 52.9987L425.5 43.4987H384L371.5 55.9987H323.5V74.9985H19.5V55.9987L0.500732 36.9995L-15.9619 37.0007L-40.9614 12.0012L-65.9597 36.9994L-81.8936 52.9333L-92.3262 42.5007H-260.461L-281.894 63.9333L-302.826 43.0022H-312.961L-323.894 53.9348L-337.461 40.3674H-466.826L-475.961 49.5022L-482.745 42.7185H-653.961L-659.68 36.9994L-666.678 30.0017H-693.961L-700.959 36.9994L-738.961 75L-770.961 43H-775.461L-785.461 53L-794.961 43.5H-836.461L-848.961 56H-894V403.998H2175V75.0025V56.0027Z" fill="#EA1429"/>
  </g>
  <defs>
    <filter id="filter0_dd_677_1817" x="-898" y="0" width="3077" height="415.998" filterUnits="userSpaceOnUse" color-interpolation-filters="sRGB">
      <feFlood flood-opacity="0" result="BackgroundImageFix"/>
      <feColorMatrix in="SourceAlpha" type="matrix" values="0 0 0 0 0 0 0 0 0 0 0 0 0 0 0 0 0 0 127 0" result="hardAlpha"/>
      <feOffset dy="8"/>
      <feGaussianBlur stdDeviation="2"/>
      <feComposite in2="hardAlpha" operator="out"/>
      <feColorMatrix type="matrix" values="0 0 0 0 0 0 0 0 0 0 0 0 0 0 0 0 0 0 0.25 0"/>
      <feBlend mode="normal" in2="BackgroundImageFix" result="effect1_dropShadow_677_1817"/>
      <feColorMatrix in="SourceAlpha" type="matrix" values="0 0 0 0 0 0 0 0 0 0 0 0 0 0 0 0 0 0 127 0" result="hardAlpha"/>
      <feOffset dy="-8"/>
      <feGaussianBlur stdDeviation="2"/>
      <feComposite in2="hardAlpha" operator="out"/>
      <feColorMatrix type="matrix" values="0 0 0 0 0 0 0 0 0 0 0 0 0 0 0 0 0 0 0.25 0"/>
      <feBlend mode="normal" in2="effect1_dropShadow_677_1817" result="effect2_dropShadow_677_1817"/>
      <feBlend mode="normal" in="SourceGraphic" in2="effect2_dropShadow_677_1817" result="shape"/>
    </filter>
  </defs>
  
</svg>