<svg xmlns="http://www.w3.org/2000/svg" width="42" height="42" viewBox="0 0 42 42" fill="none">
  <g clip-path="url(#clip0_677_1846)">
    <path d="M35.4547 35.8923C43.4378 27.9092 43.4378 14.966 35.4547 6.98294C27.4716 -1.00016 14.5284 -1.00018 6.5453 6.98292C-1.4378 14.966 -1.43778 27.9092 6.54532 35.8923C14.5284 43.8754 27.4716 43.8754 35.4547 35.8923Z" fill="#040804"/>
    <path d="M19.5446 28.4432C19.5445 28.3216 19.5178 28.2016 19.4662 28.0915C19.4145 27.9814 19.3393 27.8841 19.2459 27.8063C19.1524 27.7285 19.043 27.6722 18.9253 27.6414C18.8077 27.6106 18.6847 27.6061 18.5651 27.6281C17.4795 27.8272 16.1089 27.8572 15.7445 26.834C15.4267 26.0416 14.9003 25.35 14.2212 24.8323C14.1727 24.806 14.1265 24.7757 14.0831 24.7417C14.0237 24.5849 13.9181 24.4499 13.7803 24.3544C13.6425 24.2589 13.479 24.2074 13.3113 24.2066H13.3073C13.088 24.2065 12.8777 24.2933 12.7223 24.4479C12.5668 24.6025 12.479 24.8123 12.478 25.0314C12.4748 25.7073 13.1506 26.1404 13.4247 26.2869C13.748 26.6116 14.0078 26.9937 14.1908 27.4136C14.4929 28.2619 15.3707 29.5489 17.8941 29.383C17.895 29.4122 17.8958 29.4397 17.8962 29.4648L17.8998 29.6866C17.8998 29.9064 17.9872 30.1172 18.1427 30.2727C18.2982 30.4281 18.5091 30.5154 18.7291 30.5154C18.949 30.5154 19.1599 30.4281 19.3154 30.2727C19.471 30.1172 19.5583 29.9064 19.5583 29.6866L19.5543 29.4227C19.5502 29.2656 19.5446 29.0381 19.5446 28.4432ZM28.3903 15.9057C28.4166 15.8021 28.4425 15.6872 28.4652 15.5577C28.5993 14.634 28.4824 13.6912 28.1267 12.8282C28.0818 12.7157 28.0128 12.6144 27.9246 12.5313C27.8364 12.4482 27.7311 12.3855 27.6161 12.3474C27.3209 12.2478 26.2309 12.052 24.1464 13.3835C22.4137 12.9759 20.61 12.9759 18.8773 13.3835C16.8013 12.0715 15.7169 12.2495 15.4246 12.3434C15.3067 12.3799 15.1985 12.4424 15.1079 12.5261C15.0173 12.6099 14.9466 12.7128 14.901 12.8274C14.5381 13.707 14.4224 14.669 14.5666 15.6095C14.5868 15.7155 14.6087 15.8135 14.6314 15.9033C13.9444 16.8179 13.5785 17.9335 13.5903 19.0771C13.5881 19.3323 13.5999 19.5874 13.6256 19.8413C13.9025 23.6562 16.3903 24.8015 18.1237 25.1949C18.0877 25.2985 18.0549 25.4094 18.0257 25.5268C17.9738 25.7401 18.0085 25.9652 18.1224 26.1529C18.2363 26.3406 18.42 26.4755 18.6332 26.528C18.8465 26.5805 19.0718 26.5463 19.2599 26.433C19.4479 26.3197 19.5834 26.1364 19.6365 25.9234C19.6892 25.6472 19.8245 25.3935 20.0244 25.1957C20.1453 25.09 20.2328 24.9514 20.2763 24.7968C20.3198 24.6422 20.3174 24.4783 20.2695 24.3251C20.2215 24.1718 20.13 24.0358 20.0061 23.9336C19.8823 23.8314 19.7313 23.7673 19.5717 23.7493C16.7073 23.4222 15.4639 22.2558 15.2768 19.6891C15.2561 19.4858 15.2467 19.2815 15.2489 19.0772C15.2355 18.2621 15.505 17.4676 16.0113 16.8285C16.0622 16.7619 16.1164 16.6979 16.1737 16.6367C16.2752 16.5231 16.3435 16.3838 16.371 16.234C16.3985 16.0842 16.3841 15.9298 16.3296 15.7876C16.2736 15.638 16.2305 15.4839 16.2008 15.327C16.1333 14.8808 16.1554 14.4257 16.266 13.9882C16.9867 14.1916 17.665 14.5228 18.2687 14.966C18.3685 15.0324 18.4814 15.0767 18.5998 15.0957C18.7183 15.1146 18.8394 15.108 18.955 15.0761C20.631 14.6214 22.398 14.6217 24.0739 15.0769C24.1901 15.1088 24.3119 15.1151 24.4308 15.0954C24.5497 15.0757 24.6629 15.0304 24.7626 14.9628C25.3634 14.5178 26.0389 14.1836 26.7572 13.9761C26.8673 14.4031 26.8919 14.8476 26.8297 15.2841C26.7997 15.4561 26.7527 15.6248 26.6896 15.7876C26.635 15.9298 26.6207 16.0843 26.6482 16.234C26.6757 16.3838 26.744 16.5231 26.8455 16.6367C26.9095 16.7087 26.9735 16.7864 27.0309 16.8593C27.5337 17.4875 27.7986 18.2729 27.7788 19.0771C27.7803 19.2923 27.7699 19.5074 27.7477 19.7215C27.5651 22.2542 26.3167 23.4214 23.439 23.7492C23.2793 23.7674 23.1284 23.8316 23.0045 23.9339C22.8807 24.0362 22.7892 24.1723 22.7413 24.3257C22.6934 24.479 22.6911 24.6429 22.7346 24.7975C22.7782 24.9521 22.8658 25.0908 22.9867 25.1965C23.1929 25.3996 23.3284 25.6635 23.3734 25.9493C23.4294 26.1712 23.4552 26.3996 23.4499 26.6284V28.563C23.4418 29.0997 23.4418 29.502 23.4418 29.6865C23.4418 29.9063 23.5292 30.1172 23.6847 30.2726C23.8402 30.4281 24.0511 30.5154 24.2711 30.5154C24.491 30.5154 24.7019 30.4281 24.8575 30.2726C25.013 30.1172 25.1003 29.9063 25.1003 29.6865C25.1003 29.5068 25.1003 29.1126 25.1084 28.576V26.6284C25.1151 26.2619 25.0719 25.8962 24.9801 25.5414C24.9538 25.4249 24.9217 25.3098 24.8837 25.1965C26.1452 24.9871 27.2914 24.337 28.1183 23.3619C28.9452 22.3869 29.3991 21.1502 29.3993 19.872C29.4266 19.608 29.4393 19.3426 29.4374 19.0771C29.4558 17.9323 29.0868 16.8148 28.3903 15.9057L28.3903 15.9057Z" fill="#E8E8EE"/>
  </g>
  <defs>
    <clipPath id="clip0_677_1846">
      <rect width="40.884" height="40.884" fill="white" transform="translate(0.557983 0.995605)"/>
    </clipPath>
  </defs>
</svg>