<svg xmlns="http://www.w3.org/2000/svg" width="43" height="42" viewBox="0 0 43 42" fill="none">
  <g clip-path="url(#clip0_677_1823)">
    <path d="M21.6195 41.432C32.905 41.1207 41.8014 31.7197 41.4901 20.4342C41.1788 9.14865 31.7777 0.252266 20.4922 0.563556C9.2067 0.874847 0.310335 10.2759 0.621625 21.5614C0.932916 32.8469 10.334 41.7433 21.6195 41.432Z" fill="#040804"/>
    <path d="M21.0451 11.4004C18.4387 11.4004 18.1123 11.4116 17.0883 11.458C16.2916 11.4741 15.5034 11.6251 14.7571 11.9044C14.1205 12.1518 13.5425 12.5293 13.0601 13.0128C12.5777 13.4963 12.2015 14.0752 11.9555 14.7124C11.6764 15.4582 11.5254 16.2458 11.5091 17.042C11.4627 18.066 11.4515 18.394 11.4515 21.0004C11.4515 23.6068 11.4627 23.9348 11.5091 24.9588C11.5254 25.7549 11.6764 26.5426 11.9555 27.2884C12.202 27.926 12.5789 28.5052 13.0622 28.9888C13.5455 29.4723 14.1244 29.8496 14.7619 30.0964C15.5082 30.3757 16.2964 30.5266 17.0931 30.5428C18.1171 30.5892 18.4435 30.6004 21.0499 30.6004C23.6563 30.6004 23.9843 30.5892 25.0083 30.5428C25.8045 30.5268 26.5922 30.3759 27.3379 30.0964C27.9759 29.8499 28.5552 29.4728 29.0388 28.9892C29.5224 28.5056 29.8995 27.9263 30.1459 27.2884C30.4251 26.5426 30.576 25.7549 30.5923 24.9588C30.6387 23.9348 30.6499 23.6068 30.6499 21.0004C30.6499 18.394 30.6387 18.066 30.5923 17.042C30.576 16.2458 30.4251 15.4582 30.1459 14.7124C29.8995 14.0745 29.5224 13.4951 29.0388 13.0115C28.5552 12.528 27.9759 12.1508 27.3379 11.9044C26.5922 11.6249 25.8045 11.474 25.0083 11.458C23.9795 11.4116 23.6531 11.4004 21.0451 11.4004ZM21.0451 13.13C23.6051 13.13 23.9123 13.1396 24.9251 13.186C25.5338 13.1936 26.1367 13.3057 26.7075 13.5172C27.1213 13.6771 27.4972 13.9216 27.811 14.2352C28.1248 14.5487 28.3697 14.9243 28.5299 15.338C28.7413 15.9094 28.8528 16.5128 28.8595 17.122C28.9059 18.1332 28.9155 18.4372 28.9155 21.0004C28.9155 23.5636 28.9059 23.8676 28.8595 24.8788C28.8528 25.488 28.7413 26.0914 28.5299 26.6628C28.3697 27.0764 28.1248 27.4521 27.811 27.7656C27.4972 28.0792 27.1213 28.3237 26.7075 28.4836C26.1367 28.6951 25.5338 28.8071 24.9251 28.8148C23.9123 28.8612 23.6099 28.8708 21.0451 28.8708C18.4803 28.8708 18.1795 28.8612 17.1667 28.8148C16.558 28.8071 15.9552 28.6951 15.3843 28.4836C14.9694 28.3244 14.5923 28.0802 14.2773 27.7667C13.9623 27.4531 13.7165 27.0771 13.5555 26.6628C13.3442 26.0914 13.2327 25.488 13.2259 24.8788C13.1795 23.8676 13.1699 23.5636 13.1699 21.0004C13.1699 18.4372 13.1795 18.1332 13.2259 17.122C13.2327 16.5128 13.3442 15.9094 13.5555 15.338C13.7158 14.9243 13.9607 14.5487 14.2745 14.2352C14.5883 13.9216 14.9641 13.6771 15.3779 13.5172C15.9488 13.3057 16.5516 13.1936 17.1603 13.186C18.1731 13.1396 18.4755 13.13 21.0387 13.13" fill="#E8E8EE"/>
    <path d="M21.0451 24.2004C20.4122 24.2004 19.7936 24.0127 19.2673 23.6611C18.7411 23.3095 18.3309 22.8097 18.0887 22.225C17.8465 21.6403 17.7832 20.9969 17.9066 20.3761C18.0301 19.7554 18.3349 19.1852 18.7824 18.7377C19.2299 18.2901 19.8001 17.9854 20.4209 17.8619C21.0416 17.7384 21.685 17.8018 22.2697 18.044C22.8544 18.2862 23.3542 18.6963 23.7058 19.2226C24.0575 19.7488 24.2451 20.3675 24.2451 21.0004C24.2451 21.8491 23.908 22.663 23.3079 23.2631C22.7078 23.8633 21.8938 24.2004 21.0451 24.2004ZM21.0451 16.0708C20.0702 16.0708 19.1171 16.3599 18.3064 16.9016C17.4957 17.4433 16.8639 18.2132 16.4908 19.1139C16.1177 20.0147 16.0201 21.0059 16.2103 21.9621C16.4005 22.9184 16.87 23.7967 17.5594 24.4862C18.2488 25.1756 19.1272 25.6451 20.0834 25.8353C21.0397 26.0255 22.0308 25.9279 22.9316 25.5548C23.8324 25.1817 24.6023 24.5498 25.144 23.7391C25.6856 22.9285 25.9747 21.9754 25.9747 21.0004C25.9747 19.693 25.4554 18.4391 24.5309 17.5146C23.6064 16.5902 22.3526 16.0708 21.0451 16.0708Z" fill="#E8E8EE"/>
    <path d="M27.3155 15.8756C27.3155 16.1035 27.248 16.3262 27.1214 16.5157C26.9948 16.7051 26.8149 16.8527 26.6044 16.9399C26.3939 17.0271 26.1623 17.05 25.9388 17.0055C25.7153 16.9611 25.5101 16.8513 25.3489 16.6902C25.1878 16.5291 25.0781 16.3239 25.0337 16.1004C24.9892 15.8769 25.012 15.6453 25.0992 15.4348C25.1864 15.2243 25.3341 15.0444 25.5235 14.9178C25.713 14.7912 25.9357 14.7236 26.1635 14.7236C26.4691 14.7236 26.7621 14.845 26.9781 15.0611C27.1942 15.2771 27.3155 15.5701 27.3155 15.8756Z" fill="#E8E8EE"/>
  </g>
  <defs>
    <clipPath id="clip0_677_1823">
      <rect width="41.9957" height="41.9957" fill="white" transform="translate(0.0579834)"/>
    </clipPath>
  </defs>
</svg>