<svg xmlns="http://www.w3.org/2000/svg" width="42" height="42" viewBox="0 0 42 42" fill="none">
  <g clip-path="url(#clip0_677_1838)">
    <path d="M35.4547 35.8923C43.4378 27.9092 43.4378 14.966 35.4547 6.98294C27.4716 -1.00016 14.5284 -1.00018 6.5453 6.98292C-1.4378 14.966 -1.43778 27.9092 6.54532 35.8923C14.5284 43.8754 27.4716 43.8754 35.4547 35.8923Z" fill="#040804"/>
    <path d="M16.2724 18.6479H12.6516V29.7983H16.2724V18.6479Z" fill="#E8E8EE"/>
    <path d="M14.4612 13.0767C13.2932 13.0767 12.5316 13.9134 12.5556 15.0286C12.5426 15.2809 12.5821 15.5332 12.6716 15.7694C12.761 16.0057 12.8986 16.2208 13.0754 16.4012C13.2522 16.5817 13.4645 16.7235 13.6989 16.8177C13.9333 16.9119 14.1847 16.9565 14.4372 16.9486C15.6276 16.9486 16.3908 16.0862 16.3908 15.0286C16.3668 13.9134 15.6276 13.0767 14.4612 13.0767Z" fill="#E8E8EE"/>
    <path d="M25.274 18.3871C24.66 18.3789 24.0513 18.5016 23.4885 18.7471C22.9256 18.9927 22.4216 19.3554 22.01 19.8111V18.6495H18.3908V29.7998H22.01V23.5807C22.0011 23.2725 22.0499 22.9653 22.154 22.6751C22.3924 22.0079 22.9876 21.3167 23.9876 21.3167C25.298 21.3167 25.8212 22.3423 25.8212 23.8415V29.7998H29.442V23.3887C29.442 19.9599 27.6564 18.3871 25.274 18.3871Z" fill="#E8E8EE"/>
  </g>
  <defs>
    <clipPath id="clip0_677_1838">
      <rect width="40.884" height="40.884" fill="white" transform="translate(0.557983 0.995605)"/>
    </clipPath>
  </defs>
</svg>