<svg width="520" height="70" viewBox="0 0 520 70" fill="none" xmlns="http://www.w3.org/2000/svg">
<path d="M28.5458 12.1742H22.631C22.4623 11.2291 22.1513 10.3918 21.698 9.66235C21.2446 8.92265 20.6805 8.29595 20.0058 7.78227C19.331 7.26859 18.5613 6.88333 17.6968 6.62649C16.8428 6.35938 15.9203 6.22582 14.9292 6.22582C13.1685 6.22582 11.6081 6.65731 10.248 7.52029C8.88794 8.37301 7.82307 9.62639 7.05342 11.2804C6.28376 12.9242 5.89893 14.9327 5.89893 17.3059C5.89893 19.7202 6.28376 21.7544 7.05342 23.4085C7.83362 25.0522 8.89848 26.2954 10.248 27.1378C11.6081 27.97 13.1632 28.386 14.9134 28.386C15.8834 28.386 16.7901 28.2627 17.6335 28.0162C18.4875 27.7593 19.2519 27.3844 19.9267 26.8912C20.612 26.3981 21.1866 25.7919 21.6505 25.0728C22.125 24.3536 22.4518 23.5317 22.631 22.6071L28.5458 22.6379C28.3244 24.1379 27.8447 25.5454 27.1066 26.8604C26.3791 28.1754 25.425 29.3363 24.2441 30.3432C23.0633 31.3397 21.6821 32.1205 20.1007 32.6855C18.5192 33.2403 16.7637 33.5177 14.8343 33.5177C11.9876 33.5177 9.44673 32.8756 7.21157 31.5914C4.9764 30.3072 3.21568 28.4528 1.92941 26.0282C0.643137 23.6037 0 20.6962 0 17.3059C0 13.9054 0.648408 10.9979 1.94522 8.58362C3.24204 6.15904 5.00803 4.30465 7.24319 3.02045C9.47836 1.73624 12.0087 1.09414 14.8343 1.09414C16.6372 1.09414 18.3136 1.34071 19.8634 1.83384C21.4133 2.32698 22.7945 3.05127 24.0069 4.00672C25.2194 4.95189 26.2157 6.11281 26.9959 7.48948C27.7867 8.85587 28.3033 10.4175 28.5458 12.1742Z" fill="white"/>
<path d="M44.2618 33.5485C41.8895 33.5485 39.8336 33.04 38.094 32.0229C36.3544 31.0058 35.0048 29.5829 34.0454 27.7542C33.0965 25.9255 32.6221 23.7886 32.6221 21.3435C32.6221 18.8983 33.0965 16.7563 34.0454 14.9173C35.0048 13.0783 36.3544 11.6503 38.094 10.6332C39.8336 9.61612 41.8895 9.10757 44.2618 9.10757C46.634 9.10757 48.6899 9.61612 50.4296 10.6332C52.1692 11.6503 53.5135 13.0783 54.4623 14.9173C55.4218 16.7563 55.9015 18.8983 55.9015 21.3435C55.9015 23.7886 55.4218 25.9255 54.4623 27.7542C53.5135 29.5829 52.1692 31.0058 50.4296 32.0229C48.6899 33.04 46.634 33.5485 44.2618 33.5485ZM44.2934 29.0795C45.5797 29.0795 46.6551 28.7353 47.5196 28.047C48.3842 27.3484 49.0273 26.4135 49.449 25.2423C49.8813 24.0711 50.0974 22.7664 50.0974 21.328C50.0974 19.8795 49.8813 18.5696 49.449 17.3984C49.0273 16.2169 48.3842 15.2769 47.5196 14.5783C46.6551 13.8797 45.5797 13.5304 44.2934 13.5304C42.9755 13.5304 41.879 13.8797 41.0039 14.5783C40.1394 15.2769 39.491 16.2169 39.0587 17.3984C38.637 18.5696 38.4261 19.8795 38.4261 21.328C38.4261 22.7664 38.637 24.0711 39.0587 25.2423C39.491 26.4135 40.1394 27.3484 41.0039 28.047C41.879 28.7353 42.9755 29.0795 44.2934 29.0795Z" fill="white"/>
<path d="M60.7606 33.0862V9.41578H66.2325V13.4379H66.5172C67.0233 12.0818 67.8615 11.0236 69.0318 10.2634C70.2021 9.49283 71.599 9.10757 73.2227 9.10757C74.8674 9.10757 76.2539 9.49797 77.382 10.2788C78.5207 11.0493 79.3219 12.1023 79.7858 13.4379H80.0389C80.5766 12.1229 81.4833 11.075 82.759 10.2942C84.0453 9.50311 85.5688 9.10757 87.3295 9.10757C89.5647 9.10757 91.3887 9.7959 92.8015 11.1726C94.2142 12.5492 94.9206 14.5577 94.9206 17.1981V33.0862H89.1799V18.061C89.1799 16.5919 88.7792 15.5183 87.9779 14.8403C87.1766 14.1519 86.1961 13.8078 85.0364 13.8078C83.6552 13.8078 82.5745 14.229 81.7943 15.0714C81.0247 15.9036 80.6398 16.9874 80.6398 18.323V33.0862H75.0256V17.8299C75.0256 16.6073 74.646 15.6313 73.8869 14.9019C73.1383 14.1725 72.1578 13.8078 70.9454 13.8078C70.123 13.8078 69.3744 14.0132 68.6996 14.4242C68.0249 14.8248 67.4872 15.395 67.0865 16.1347C66.6859 16.8642 66.4856 17.7169 66.4856 18.6929V33.0862H60.7606Z" fill="white"/>
<path d="M100.729 41.9626V9.41578H106.359V13.33H106.691C106.986 12.7547 107.403 12.1434 107.94 11.4962C108.478 10.8387 109.205 10.2788 110.123 9.81645C111.04 9.34386 112.21 9.10757 113.634 9.10757C115.51 9.10757 117.202 9.57502 118.71 10.5099C120.228 11.4345 121.43 12.8061 122.316 14.6245C123.212 16.4327 123.66 18.6518 123.66 21.2818C123.66 23.881 123.223 26.0899 122.348 27.9083C121.472 29.7267 120.281 31.1137 118.773 32.0691C117.266 33.0246 115.558 33.5023 113.649 33.5023C112.258 33.5023 111.103 33.2763 110.186 32.8242C109.269 32.3722 108.531 31.8277 107.972 31.1907C107.424 30.5435 106.997 29.9322 106.691 29.3569H106.454V41.9626H100.729ZM106.343 21.251C106.343 22.7818 106.564 24.1225 107.007 25.2731C107.46 26.4238 108.109 27.3227 108.952 27.97C109.806 28.6069 110.84 28.9254 112.052 28.9254C113.317 28.9254 114.377 28.5966 115.231 27.9391C116.085 27.2713 116.728 26.3621 117.16 25.2115C117.603 24.0506 117.824 22.7304 117.824 21.251C117.824 19.7819 117.608 18.4771 117.176 17.3367C116.744 16.1964 116.101 15.3026 115.247 14.6553C114.393 14.0081 113.328 13.6845 112.052 13.6845C110.829 13.6845 109.791 13.9978 108.937 14.6245C108.083 15.2512 107.434 16.1296 106.991 17.2597C106.559 18.3898 106.343 19.7202 106.343 21.251Z" fill="white"/>
<path d="M144.045 23.1311V9.41578H149.77V33.0862H144.219V28.8792H143.966C143.418 30.2045 142.517 31.2883 141.262 32.1308C140.018 32.9732 138.484 33.3944 136.66 33.3944C135.068 33.3944 133.66 33.0503 132.437 32.3619C131.225 31.6633 130.276 30.6514 129.591 29.3261C128.905 27.9905 128.563 26.3775 128.563 24.4872V9.41578H134.288V23.6242C134.288 25.1242 134.709 26.3159 135.553 27.1994C136.396 28.083 137.503 28.5247 138.874 28.5247C139.717 28.5247 140.535 28.3244 141.325 27.9237C142.116 27.523 142.764 26.9272 143.271 26.1361C143.787 25.3348 144.045 24.3331 144.045 23.1311Z" fill="white"/>
<path d="M167.787 9.41578V13.7307H153.823V9.41578H167.787ZM157.271 3.74474H162.996V25.9666C162.996 26.7166 163.112 27.2919 163.344 27.6926C163.586 28.083 163.902 28.3501 164.292 28.4939C164.683 28.6377 165.115 28.7097 165.589 28.7097C165.948 28.7097 166.275 28.684 166.57 28.6326C166.876 28.5812 167.107 28.535 167.266 28.4939L168.23 32.8551C167.925 32.9578 167.487 33.0708 166.918 33.1941C166.359 33.3174 165.674 33.3893 164.862 33.4098C163.428 33.4509 162.136 33.2403 160.987 32.778C159.838 32.3054 158.926 31.576 158.251 30.5897C157.587 29.6035 157.26 28.3706 157.271 26.8912V3.74474Z" fill="white"/>
<path d="M183.069 33.5485C180.633 33.5485 178.53 33.0554 176.758 32.0691C174.998 31.0726 173.643 29.6651 172.694 27.8467C171.745 26.018 171.271 23.8656 171.271 21.3897C171.271 18.9548 171.745 16.8179 172.694 14.9789C173.653 13.1297 174.992 11.6914 176.711 10.664C178.43 9.62639 180.449 9.10757 182.768 9.10757C184.265 9.10757 185.678 9.34386 187.006 9.81645C188.345 10.2788 189.526 10.9979 190.549 11.9739C191.582 12.9499 192.394 14.193 192.984 15.7032C193.575 17.2032 193.87 18.9908 193.87 21.0661V22.7766H173.959V19.0165H188.382C188.372 17.948 188.135 16.9977 187.671 16.1656C187.207 15.3231 186.558 14.6605 185.725 14.1776C184.903 13.6947 183.944 13.4533 182.847 13.4533C181.677 13.4533 180.649 13.7307 179.763 14.2855C178.878 14.83 178.187 15.5491 177.692 16.4429C177.207 17.3265 176.959 18.2973 176.948 19.3555V22.6379C176.948 24.0146 177.207 25.1961 177.723 26.1823C178.24 27.1583 178.962 27.9083 179.89 28.4323C180.818 28.9459 181.904 29.2028 183.148 29.2028C183.981 29.2028 184.734 29.0898 185.409 28.8638C186.084 28.6275 186.669 28.2833 187.165 27.8313C187.66 27.3792 188.034 26.8193 188.287 26.1515L193.633 26.7371C193.296 28.1138 192.652 29.3158 191.703 30.3432C190.765 31.3602 189.563 32.1513 188.098 32.7164C186.632 33.2711 184.956 33.5485 183.069 33.5485Z" fill="white"/>
<path d="M198.713 33.0862V9.41578H204.264V13.3609H204.517C204.96 11.9945 205.719 10.9414 206.795 10.2017C207.881 9.45174 209.12 9.07675 210.511 9.07675C210.828 9.07675 211.181 9.09216 211.571 9.12298C211.972 9.14353 212.304 9.17949 212.567 9.23085V14.3625C212.325 14.2803 211.94 14.2084 211.413 14.1468C210.896 14.0749 210.395 14.0389 209.91 14.0389C208.867 14.0389 207.928 14.2598 207.095 14.7016C206.273 15.1331 205.624 15.7341 205.15 16.5046C204.676 17.2751 204.438 18.1638 204.438 19.1706V33.0862H198.713Z" fill="white"/>
<path d="M245.272 10.2017C245.125 8.85587 244.503 7.80796 243.406 7.05798C242.32 6.30801 240.907 5.93302 239.168 5.93302C237.945 5.93302 236.896 6.11281 236.021 6.47239C235.146 6.83196 234.476 7.31996 234.012 7.93638C233.548 8.55279 233.311 9.25654 233.3 10.0476C233.3 10.7051 233.453 11.2753 233.759 11.7582C234.075 12.241 234.502 12.652 235.04 12.991C235.578 13.3198 236.173 13.5971 236.827 13.8232C237.481 14.0492 238.14 14.2392 238.804 14.3934L241.84 15.1331C243.063 15.4104 244.239 15.7854 245.367 16.258C246.506 16.7306 247.523 17.3265 248.419 18.0456C249.326 18.7648 250.043 19.6329 250.57 20.65C251.097 21.6671 251.361 22.8588 251.361 24.2252C251.361 26.0745 250.876 27.7028 249.906 29.1103C248.936 30.5075 247.534 31.6017 245.699 32.3927C243.875 33.1735 241.667 33.5639 239.073 33.5639C236.553 33.5639 234.365 33.1838 232.51 32.4236C230.665 31.6633 229.22 30.5538 228.176 29.0949C227.143 27.6361 226.584 25.8587 226.5 23.7629H232.272C232.357 24.8622 232.705 25.7765 233.316 26.506C233.928 27.2354 234.724 27.7799 235.704 28.1395C236.695 28.499 237.802 28.6788 239.025 28.6788C240.301 28.6788 241.419 28.4939 242.378 28.1241C243.348 27.7439 244.107 27.22 244.656 26.5522C245.204 25.8741 245.483 25.0831 245.494 24.179C245.483 23.3571 245.235 22.679 244.75 22.1448C244.265 21.6003 243.585 21.1483 242.71 20.7887C241.846 20.4188 240.834 20.0901 239.674 19.8024L235.989 18.8778C233.322 18.21 231.213 17.1981 229.663 15.8419C228.124 14.4755 227.354 12.6622 227.354 10.402C227.354 8.54252 227.871 6.91415 228.904 5.51694C229.948 4.11973 231.366 3.03586 233.158 2.26533C234.95 1.48454 236.98 1.09414 239.247 1.09414C241.545 1.09414 243.559 1.48454 245.288 2.26533C247.028 3.03586 248.393 4.10945 249.384 5.48612C250.375 6.85251 250.887 8.42437 250.918 10.2017H245.272Z" fill="white"/>
<path d="M266.935 33.5485C264.562 33.5485 262.507 33.04 260.767 32.0229C259.027 31.0058 257.678 29.5829 256.718 27.7542C255.769 25.9255 255.295 23.7886 255.295 21.3435C255.295 18.8983 255.769 16.7563 256.718 14.9173C257.678 13.0783 259.027 11.6503 260.767 10.6332C262.507 9.61612 264.562 9.10757 266.935 9.10757C269.307 9.10757 271.363 9.61612 273.102 10.6332C274.842 11.6503 276.186 13.0783 277.135 14.9173C278.095 16.7563 278.574 18.8983 278.574 21.3435C278.574 23.7886 278.095 25.9255 277.135 27.7542C276.186 29.5829 274.842 31.0058 273.102 32.0229C271.363 33.04 269.307 33.5485 266.935 33.5485ZM266.966 29.0795C268.253 29.0795 269.328 28.7353 270.193 28.047C271.057 27.3484 271.7 26.4135 272.122 25.2423C272.554 24.0711 272.77 22.7664 272.77 21.328C272.77 19.8795 272.554 18.5696 272.122 17.3984C271.7 16.2169 271.057 15.2769 270.193 14.5783C269.328 13.8797 268.253 13.5304 266.966 13.5304C265.648 13.5304 264.552 13.8797 263.677 14.5783C262.812 15.2769 262.164 16.2169 261.732 17.3984C261.31 18.5696 261.099 19.8795 261.099 21.328C261.099 22.7664 261.31 24.0711 261.732 25.2423C262.164 26.4135 262.812 27.3484 263.677 28.047C264.552 28.7353 265.648 29.0795 266.966 29.0795Z" fill="white"/>
<path d="M294.029 33.5485C291.604 33.5485 289.522 33.0297 287.783 31.9921C286.053 30.9544 284.72 29.5213 283.781 27.6926C282.854 25.8536 282.39 23.7372 282.39 21.3435C282.39 18.9394 282.864 16.8179 283.813 14.9789C284.762 13.1297 286.101 11.6914 287.83 10.664C289.57 9.62639 291.626 9.10757 293.998 9.10757C295.969 9.10757 297.714 9.46201 299.233 10.1709C300.761 10.8695 301.979 11.8609 302.886 13.1451C303.792 14.419 304.309 15.9087 304.436 17.6141H298.964C298.742 16.4738 298.215 15.5235 297.382 14.7632C296.56 13.9927 295.458 13.6074 294.077 13.6074C292.907 13.6074 291.879 13.9156 290.993 14.532C290.107 15.1382 289.417 16.0114 288.921 17.1518C288.436 18.2922 288.194 19.6586 288.194 21.251C288.194 22.864 288.436 24.2509 288.921 25.4118C289.406 26.5625 290.086 27.4511 290.961 28.0778C291.847 28.6942 292.886 29.0024 294.077 29.0024C294.92 29.0024 295.674 28.8483 296.338 28.5401C297.013 28.2217 297.577 27.7645 298.031 27.1686C298.484 26.5727 298.795 25.8484 298.964 24.9957H304.436C304.299 26.6703 303.792 28.1549 302.917 29.4494C302.042 30.7336 300.851 31.7404 299.343 32.4698C297.836 33.189 296.064 33.5485 294.029 33.5485Z" fill="white"/>
<path d="M309.137 33.0862V9.41578H314.862V33.0862H309.137ZM312.015 6.0563C311.108 6.0563 310.328 5.76351 309.674 5.17791C309.021 4.58204 308.694 3.86802 308.694 3.03586C308.694 2.19342 309.021 1.4794 309.674 0.893804C310.328 0.297935 311.108 0 312.015 0C312.932 0 313.712 0.297935 314.355 0.893804C315.009 1.4794 315.336 2.19342 315.336 3.03586C315.336 3.86802 315.009 4.58204 314.355 5.17791C313.712 5.76351 312.932 6.0563 312.015 6.0563Z" fill="white"/>
<path d="M331.503 33.5485C329.067 33.5485 326.964 33.0554 325.193 32.0691C323.432 31.0726 322.077 29.6651 321.128 27.8467C320.179 26.018 319.705 23.8656 319.705 21.3897C319.705 18.9548 320.179 16.8179 321.128 14.9789C322.088 13.1297 323.427 11.6914 325.145 10.664C326.864 9.62639 328.883 9.10757 331.202 9.10757C332.699 9.10757 334.112 9.34386 335.441 9.81645C336.78 10.2788 337.96 10.9979 338.983 11.9739C340.016 12.9499 340.828 14.193 341.419 15.7032C342.009 17.2032 342.304 18.9908 342.304 21.0661V22.7766H322.393V19.0165H336.816C336.806 17.948 336.569 16.9977 336.105 16.1656C335.641 15.3231 334.992 14.6605 334.16 14.1776C333.337 13.6947 332.378 13.4533 331.281 13.4533C330.111 13.4533 329.083 13.7307 328.197 14.2855C327.312 14.83 326.621 15.5491 326.126 16.4429C325.641 17.3265 325.393 18.2973 325.382 19.3555V22.6379C325.382 24.0146 325.641 25.1961 326.157 26.1823C326.674 27.1583 327.396 27.9083 328.324 28.4323C329.252 28.9459 330.338 29.2028 331.582 29.2028C332.415 29.2028 333.169 29.0898 333.843 28.8638C334.518 28.6275 335.103 28.2833 335.599 27.8313C336.094 27.3792 336.469 26.8193 336.722 26.1515L342.067 26.7371C341.73 28.1138 341.086 29.3158 340.138 30.3432C339.199 31.3602 337.997 32.1513 336.532 32.7164C335.066 33.2711 333.39 33.5485 331.503 33.5485Z" fill="white"/>
<path d="M359.277 9.41578V13.7307H345.313V9.41578H359.277ZM348.761 3.74474H354.486V25.9666C354.486 26.7166 354.602 27.2919 354.834 27.6926C355.076 28.083 355.392 28.3501 355.782 28.4939C356.173 28.6377 356.605 28.7097 357.079 28.7097C357.438 28.7097 357.765 28.684 358.06 28.6326C358.365 28.5812 358.597 28.535 358.756 28.4939L359.72 32.8551C359.415 32.9578 358.977 33.0708 358.408 33.1941C357.849 33.3174 357.164 33.3893 356.352 33.4098C354.918 33.4509 353.626 33.2403 352.477 32.778C351.328 32.3054 350.416 31.576 349.741 30.5897C349.077 29.6035 348.75 28.3706 348.761 26.8912V3.74474Z" fill="white"/>
<path d="M367.624 41.9626C366.844 41.9626 366.121 41.901 365.457 41.7777C364.803 41.6647 364.282 41.5311 363.891 41.377L365.22 37.0313C366.053 37.2676 366.796 37.3806 367.45 37.3703C368.103 37.36 368.678 37.1597 369.174 36.7693C369.68 36.3892 370.107 35.7522 370.455 34.8584L370.945 33.5794L362.136 9.41578H368.209L373.807 27.2919H374.06L379.675 9.41578H385.763L376.037 35.9526C375.584 37.2059 374.983 38.2795 374.234 39.1733C373.486 40.0774 372.569 40.7658 371.483 41.2383C370.407 41.7212 369.121 41.9626 367.624 41.9626Z" fill="white"/>
<path d="M64.9594 49.9761L70.2278 65.5021H70.4353L75.6938 49.9761H79.7265L72.5901 69.7014H68.0631L60.9365 49.9761H64.9594Z" fill="white"/>
<path d="M86.0599 49.9761V69.7014H82.3928V49.9761H86.0599Z" fill="white"/>
<path d="M89.1413 52.9715V49.9761H105.292V52.9715H99.0355V69.7014H95.3981V52.9715H89.1413Z" fill="white"/>
<path d="M126.311 55.3986C126.219 54.5575 125.83 53.9025 125.145 53.4338C124.466 52.965 123.583 52.7307 122.496 52.7307C121.731 52.7307 121.076 52.843 120.529 53.0678C119.982 53.2925 119.563 53.5975 119.274 53.9828C118.984 54.368 118.835 54.8079 118.829 55.3023C118.829 55.7132 118.924 56.0696 119.115 56.3714C119.313 56.6732 119.58 56.93 119.916 57.1419C120.252 57.3474 120.624 57.5208 121.033 57.662C121.441 57.8033 121.853 57.9221 122.268 58.0184L124.166 58.4807C124.931 58.6541 125.665 58.8884 126.37 59.1838C127.082 59.4792 127.718 59.8516 128.278 60.3011C128.845 60.7505 129.293 61.2931 129.622 61.9288C129.952 62.5645 130.117 63.3093 130.117 64.1633C130.117 65.3191 129.813 66.3368 129.207 67.2165C128.601 68.0897 127.725 68.7736 126.578 69.268C125.438 69.756 124.058 70 122.436 70C120.862 70 119.494 69.7624 118.335 69.2873C117.181 68.8121 116.279 68.1186 115.626 67.2069C114.98 66.2951 114.631 65.1842 114.578 63.8744H118.186C118.239 64.5614 118.456 65.1329 118.839 65.5888C119.221 66.0447 119.718 66.385 120.331 66.6097C120.951 66.8344 121.642 66.9468 122.407 66.9468C123.204 66.9468 123.903 66.8312 124.502 66.6001C125.109 66.3625 125.583 66.035 125.926 65.6177C126.268 65.1939 126.443 64.6994 126.449 64.1344C126.443 63.6207 126.288 63.1969 125.985 62.863C125.682 62.5227 125.257 62.2402 124.71 62.0155C124.17 61.7843 123.537 61.5788 122.812 61.3991L120.509 60.8212C118.842 60.4038 117.524 59.7713 116.555 58.9237C115.593 58.0697 115.112 56.9364 115.112 55.5238C115.112 54.3616 115.435 53.3439 116.081 52.4706C116.733 51.5974 117.62 50.9199 118.74 50.4384C119.86 49.9504 121.128 49.7064 122.545 49.7064C123.982 49.7064 125.24 49.9504 126.321 50.4384C127.408 50.9199 128.262 51.5909 128.881 52.4514C129.5 53.3054 129.82 54.2878 129.84 55.3986H126.311Z" fill="white"/>
<path d="M140.809 54.9074V57.6042H132.081V54.9074H140.809ZM134.236 51.363H137.814V65.2517C137.814 65.7204 137.886 66.08 138.031 66.3304C138.183 66.5744 138.381 66.7413 138.624 66.8312C138.868 66.9211 139.138 66.9661 139.435 66.9661C139.659 66.9661 139.863 66.95 140.048 66.9179C140.239 66.8858 140.384 66.8569 140.483 66.8312L141.086 69.557C140.895 69.6212 140.621 69.6918 140.265 69.7688C139.916 69.8459 139.488 69.8908 138.98 69.9037C138.084 69.9294 137.277 69.7977 136.559 69.5088C135.84 69.2134 135.27 68.7575 134.849 68.1411C134.434 67.5247 134.229 66.7542 134.236 65.8295V51.363Z" fill="white"/>
<path d="M153.478 63.4795V54.9074H157.056V69.7014H153.587V67.072H153.429C153.086 67.9003 152.523 68.5777 151.738 69.1043C150.961 69.6308 150.002 69.8941 148.862 69.8941C147.867 69.8941 146.987 69.679 146.223 69.2487C145.465 68.8121 144.872 68.1796 144.444 67.3513C144.015 66.5166 143.801 65.5085 143.801 64.327V54.9074H147.379V63.7877C147.379 64.7251 147.643 65.47 148.17 66.0222C148.697 66.5744 149.389 66.8505 150.246 66.8505C150.773 66.8505 151.284 66.7253 151.778 66.4749C152.272 66.2244 152.677 65.852 152.994 65.3576C153.317 64.8568 153.478 64.2307 153.478 63.4795Z" fill="white"/>
<path d="M166.37 69.9615C165.177 69.9615 164.109 69.6629 163.167 69.0657C162.225 68.4686 161.48 67.6018 160.933 66.4652C160.386 65.3287 160.113 63.9482 160.113 62.3237C160.113 60.6799 160.39 59.293 160.943 58.1629C161.503 57.0263 162.258 56.1691 163.207 55.5912C164.156 55.0069 165.213 54.7148 166.379 54.7148C167.269 54.7148 168.001 54.8625 168.574 55.1578C169.147 55.4468 169.602 55.7967 169.938 56.2077C170.274 56.6122 170.534 56.9942 170.719 57.3538H170.867V49.9761H174.455V69.7014H170.936V67.3706H170.719C170.534 67.7302 170.267 68.1122 169.918 68.5167C169.569 68.9148 169.108 69.2552 168.534 69.5377C167.961 69.8202 167.239 69.9615 166.37 69.9615ZM167.368 67.1009C168.126 67.1009 168.771 66.9019 169.305 66.5038C169.839 66.0992 170.244 65.5374 170.521 64.8182C170.798 64.0991 170.936 63.2611 170.936 62.3044C170.936 61.3477 170.798 60.5162 170.521 59.8098C170.251 59.1035 169.849 58.5545 169.315 58.1629C168.788 57.7712 168.139 57.5753 167.368 57.5753C166.571 57.5753 165.905 57.7776 165.371 58.1821C164.838 58.5866 164.436 59.1453 164.165 59.858C163.895 60.5707 163.76 61.3862 163.76 62.3044C163.76 63.229 163.895 64.0541 164.165 64.7797C164.442 65.4989 164.847 66.0671 165.381 66.4845C165.922 66.8954 166.584 67.1009 167.368 67.1009Z" fill="white"/>
<path d="M184.989 69.9904C183.467 69.9904 182.152 69.6822 181.045 69.0657C179.945 68.4429 179.098 67.5632 178.505 66.4267C177.912 65.2838 177.615 63.9386 177.615 62.3911C177.615 60.8693 177.912 59.5337 178.505 58.3844C179.105 57.2286 179.942 56.3297 181.016 55.6876C182.09 55.039 183.352 54.7148 184.801 54.7148C185.737 54.7148 186.62 54.8625 187.45 55.1578C188.287 55.4468 189.025 55.8962 189.664 56.5062C190.31 57.1162 190.818 57.8932 191.187 58.8371C191.556 59.7745 191.74 60.8918 191.74 62.1888V63.2579H179.296V60.9078H188.31C188.304 60.2401 188.155 59.6461 187.865 59.126C187.575 58.5995 187.17 58.1853 186.65 57.8835C186.136 57.5818 185.536 57.4309 184.851 57.4309C184.119 57.4309 183.477 57.6042 182.923 57.951C182.37 58.2913 181.938 58.7407 181.628 59.2994C181.325 59.8516 181.17 60.4584 181.164 61.1197V63.1713C181.164 64.0317 181.325 64.7701 181.648 65.3865C181.971 65.9965 182.422 66.4652 183.002 66.7927C183.582 67.1138 184.261 67.2743 185.039 67.2743C185.559 67.2743 186.03 67.2037 186.452 67.0624C186.874 66.9147 187.239 66.6996 187.549 66.4171C187.859 66.1346 188.093 65.7846 188.251 65.3672L191.592 65.7332C191.381 66.5937 190.979 67.3449 190.386 67.987C189.799 68.6227 189.048 69.1171 188.132 69.4703C187.216 69.817 186.169 69.9904 184.989 69.9904Z" fill="white"/>
<path d="M198.345 61.0331V69.7014H194.767V54.9074H198.187V57.4212H198.365C198.714 56.5929 199.271 55.9348 200.035 55.4468C200.806 54.9588 201.759 54.7148 202.892 54.7148C203.94 54.7148 204.852 54.9331 205.63 55.3697C206.414 55.8063 207.02 56.4388 207.449 57.2671C207.884 58.0954 208.098 59.1003 208.091 60.2818V69.7014H204.513V60.8212C204.513 59.8323 204.249 59.0586 203.722 58.5C203.202 57.9413 202.48 57.662 201.558 57.662C200.932 57.662 200.375 57.7969 199.887 58.0665C199.406 58.3298 199.027 58.7119 198.75 59.2127C198.48 59.7135 198.345 60.3203 198.345 61.0331Z" fill="white"/>
<path d="M219.31 54.9074V57.6042H210.582V54.9074H219.31ZM212.737 51.363H216.315V65.2517C216.315 65.7204 216.387 66.08 216.532 66.3304C216.684 66.5744 216.882 66.7413 217.125 66.8312C217.369 66.9211 217.639 66.9661 217.936 66.9661C218.16 66.9661 218.364 66.95 218.549 66.9179C218.74 66.8858 218.885 66.8569 218.984 66.8312L219.587 69.557C219.395 69.6212 219.122 69.6918 218.766 69.7688C218.417 69.8459 217.989 69.8908 217.481 69.9037C216.585 69.9294 215.778 69.7977 215.06 69.5088C214.341 69.2134 213.771 68.7575 213.35 68.1411C212.934 67.5247 212.73 66.7542 212.737 65.8295V51.363Z" fill="white"/>
<path d="M229.365 69.7014V49.9761H237.114C238.577 49.9761 239.792 50.2008 240.761 50.6503C241.736 51.0933 242.464 51.7001 242.946 52.4706C243.433 53.2411 243.677 54.1144 243.677 55.0904C243.677 55.893 243.519 56.5801 243.203 57.1515C242.886 57.7166 242.461 58.1757 241.927 58.5289C241.394 58.882 240.797 59.1356 240.138 59.2897V59.4824C240.857 59.5209 241.545 59.736 242.204 60.1277C242.87 60.513 243.413 61.0587 243.835 61.765C244.257 62.4714 244.468 63.3253 244.468 64.327C244.468 65.348 244.214 66.2662 243.707 67.0816C243.199 67.8907 242.435 68.5296 241.413 68.9983C240.392 69.4671 239.107 69.7014 237.559 69.7014H229.365ZM233.032 66.7157H236.975C238.307 66.7157 239.265 66.4684 239.852 65.974C240.445 65.4732 240.741 64.8311 240.741 64.0477C240.741 63.4634 240.593 62.9369 240.297 62.4682C240 61.993 239.578 61.6206 239.031 61.3509C238.484 61.0748 237.832 60.9367 237.074 60.9367H233.032V66.7157ZM233.032 58.3651H236.659C237.292 58.3651 237.862 58.2528 238.369 58.028C238.877 57.7969 239.275 57.4726 239.565 57.0552C239.862 56.6314 240.01 56.1306 240.01 55.5527C240.01 54.7886 239.733 54.1593 239.18 53.6649C238.633 53.1705 237.819 52.9233 236.738 52.9233H233.032V58.3651Z" fill="white"/>
<path d="M247.5 69.7014V54.9074H250.969V57.3731H251.127C251.404 56.5191 251.878 55.8609 252.551 55.3986C253.229 54.9299 254.004 54.6955 254.873 54.6955C255.071 54.6955 255.292 54.7051 255.536 54.7244C255.786 54.7372 255.994 54.7597 256.158 54.7918V57.9991C256.007 57.9478 255.766 57.9028 255.437 57.8643C255.114 57.8193 254.801 57.7969 254.498 57.7969C253.845 57.7969 253.259 57.9349 252.738 58.211C252.224 58.4807 251.819 58.8563 251.523 59.3379C251.226 59.8195 251.078 60.3749 251.078 61.0042V69.7014H247.5Z" fill="white"/>
<path d="M262.633 70C261.67 70 260.804 69.8331 260.033 69.4992C259.269 69.1588 258.662 68.658 258.214 67.9966C257.773 67.3353 257.552 66.5198 257.552 65.5502C257.552 64.7155 257.71 64.0252 258.026 63.4795C258.343 62.9337 258.774 62.497 259.321 62.1696C259.868 61.8421 260.484 61.5949 261.17 61.4279C261.862 61.2546 262.577 61.1294 263.315 61.0523C264.204 60.9624 264.926 60.8822 265.479 60.8115C266.033 60.7345 266.435 60.6189 266.685 60.4648C266.942 60.3043 267.071 60.0571 267.071 59.7232V59.6654C267.071 58.9398 266.85 58.378 266.408 57.9799C265.967 57.5818 265.331 57.3827 264.501 57.3827C263.624 57.3827 262.929 57.5689 262.415 57.9413C261.908 58.3138 261.565 58.7536 261.387 59.2609L258.046 58.7985C258.31 57.8996 258.745 57.1483 259.351 56.5448C259.957 55.9348 260.698 55.4789 261.575 55.1771C262.451 54.8689 263.42 54.7148 264.481 54.7148C265.212 54.7148 265.94 54.7982 266.665 54.9652C267.39 55.1321 268.052 55.4082 268.652 55.7935C269.252 56.1723 269.733 56.6892 270.095 57.3442C270.464 57.9991 270.649 58.8178 270.649 59.8002V69.7014H267.209V67.6692H267.09C266.873 68.0801 266.566 68.4654 266.171 68.825C265.782 69.1781 265.291 69.4638 264.698 69.6822C264.112 69.8941 263.423 70 262.633 70ZM263.562 67.438C264.28 67.438 264.903 67.3 265.43 67.0239C265.957 66.7413 266.362 66.3689 266.646 65.9066C266.935 65.4443 267.08 64.9402 267.08 64.3945V62.6511C266.968 62.741 266.777 62.8245 266.507 62.9016C266.244 62.9786 265.947 63.046 265.618 63.1038C265.288 63.1616 264.962 63.213 264.639 63.2579C264.316 63.3029 264.036 63.3414 263.799 63.3735C263.265 63.4441 262.787 63.5597 262.366 63.7203C261.944 63.8808 261.611 64.1055 261.367 64.3945C261.124 64.677 261.002 65.043 261.002 65.4924C261.002 66.1345 261.242 66.6193 261.723 66.9468C262.204 67.2743 262.817 67.438 263.562 67.438Z" fill="white"/>
<path d="M277.825 61.0331V69.7014H274.247V54.9074H277.667V57.4212H277.844C278.194 56.5929 278.75 55.9348 279.515 55.4468C280.286 54.9588 281.238 54.7148 282.371 54.7148C283.419 54.7148 284.332 54.9331 285.109 55.3697C285.894 55.8063 286.5 56.4388 286.928 57.2671C287.363 58.0954 287.577 59.1003 287.571 60.2818V69.7014H283.992V60.8212C283.992 59.8323 283.729 59.0586 283.202 58.5C282.681 57.9413 281.96 57.662 281.037 57.662C280.411 57.662 279.854 57.7969 279.367 58.0665C278.886 58.3298 278.507 58.7119 278.23 59.2127C277.96 59.7135 277.825 60.3203 277.825 61.0331Z" fill="white"/>
<path d="M297.83 69.9904C296.315 69.9904 295.013 69.6661 293.926 69.0176C292.845 68.3691 292.012 67.4733 291.425 66.3304C290.846 65.181 290.556 63.8583 290.556 62.3622C290.556 60.8597 290.852 59.5337 291.445 58.3844C292.038 57.2286 292.875 56.3297 293.956 55.6876C295.043 55.039 296.328 54.7148 297.811 54.7148C299.043 54.7148 300.133 54.9363 301.082 55.3793C302.038 55.816 302.799 56.4356 303.366 57.2382C303.932 58.0344 304.255 58.9655 304.334 60.0314H300.914C300.776 59.3186 300.446 58.7247 299.926 58.2495C299.412 57.768 298.723 57.5272 297.86 57.5272C297.129 57.5272 296.486 57.7198 295.933 58.1051C295.379 58.4839 294.948 59.0297 294.638 59.7424C294.335 60.4552 294.183 61.3092 294.183 62.3044C294.183 63.3125 294.335 64.1794 294.638 64.9049C294.941 65.6241 295.366 66.1795 295.913 66.5712C296.466 66.9564 297.115 67.1491 297.86 67.1491C298.387 67.1491 298.858 67.0528 299.274 66.8601C299.695 66.6611 300.048 66.3753 300.331 66.0029C300.614 65.6305 300.809 65.1778 300.914 64.6449H304.334C304.249 65.6915 303.932 66.6193 303.385 67.4284C302.838 68.231 302.094 68.8603 301.152 69.3162C300.209 69.7656 299.102 69.9904 297.83 69.9904Z" fill="white"/>
<path d="M310.85 61.0331V69.7014H307.272V49.9761H310.771V57.4212H310.949C311.305 56.5865 311.855 55.9283 312.6 55.4468C313.351 54.9588 314.307 54.7148 315.466 54.7148C316.521 54.7148 317.44 54.9299 318.224 55.3601C319.008 55.7903 319.615 56.4195 320.043 57.2479C320.478 58.0762 320.695 59.0875 320.695 60.2818V69.7014H317.117V60.8212C317.117 59.8259 316.854 59.0522 316.326 58.5C315.806 57.9413 315.074 57.662 314.132 57.662C313.499 57.662 312.933 57.7969 312.432 58.0665C311.938 58.3298 311.549 58.7119 311.266 59.2127C310.989 59.7135 310.85 60.3203 310.85 61.0331Z" fill="white"/>
<path d="M495 5V34.5871L519.942 58.2807V5H495Z" fill="#0A5616"/>
<path d="M491.429 62.3307V4.60742H461.81V34.1946L491.429 62.3307Z" fill="white"/>
<path d="M457.844 4.60742V60.8116L397.048 4.60742H457.844Z" fill="#EA8913"/>
</svg>
