<svg xmlns="http://www.w3.org/2000/svg" width="42" height="42" viewBox="0 0 42 42" fill="none">
  <g clip-path="url(#clip0_677_1843)">
    <path d="M35.4547 35.8923C43.4378 27.9092 43.4378 14.966 35.4547 6.98294C27.4716 -1.00016 14.5284 -1.00018 6.5453 6.98292C-1.4378 14.966 -1.43778 27.9092 6.54532 35.8923C14.5284 43.8754 27.4716 43.8754 35.4547 35.8923Z" fill="#040804"/>
    <path d="M28.818 18.3457C28.6447 17.756 27.3634 13.5356 21.2541 13.5356C15.1325 13.5356 13.1485 17.4359 13.3066 21.8366C13.4489 25.8016 15.8073 29.0556 21.18 29.0556C25.0795 29.0556 27.9329 27.1863 27.9329 24.7063C27.9329 22.7213 26.7421 21.7053 24.708 21.1416C21.4026 20.2254 18.4899 20.9559 18.2087 22.6897C17.9859 24.0639 19.4715 25.1592 21.4584 25.0276C24.0448 24.8562 24.7636 22.8845 24.7636 21.1628C24.7636 18.3511 22.9623 17.5559 21.5325 17.4928C19.1033 17.3855 18.2395 18.7723 18.2395 18.7723" stroke="#E8E8EE" stroke-width="1.96" stroke-miterlimit="10" stroke-linecap="round"/>
  </g>
  <defs>
    <clipPath id="clip0_677_1843">
      <rect width="40.884" height="40.884" fill="white" transform="translate(0.557983 0.995605)"/>
    </clipPath>
  </defs>
</svg>