<svg width="1280" height="123" viewBox="0 0 1280 123" fill="none" xmlns="http://www.w3.org/2000/svg">
<g filter="url(#filter0_dd_677_1882)">
<path d="M-404.215 111H-504.215L-539.215 76H-849.022L-884.022 111H-1783V-256H-849.022H646H3062.5V76H646H578.785L543.785 111L476.285 43.5L430.785 89H278.785L252.142 62.3571L238.5 75.9999L187.785 76L106 75.9999L85.0002 75.9999L60 50.9997L35 75.9999L-7.21472 76L-24.2147 59L-41.2147 76H-205.215L-225.715 55.5002L-231.822 61.6074L-256.215 37.2148L-295 76H-326.215L-347.715 54.5L-404.215 111Z" fill="#EA1429"/>
</g>
<defs>
<filter id="filter0_dd_677_1882" x="-1787" y="-268" width="4853.5" height="391" filterUnits="userSpaceOnUse" color-interpolation-filters="sRGB">
<feFlood flood-opacity="0" result="BackgroundImageFix"/>
<feColorMatrix in="SourceAlpha" type="matrix" values="0 0 0 0 0 0 0 0 0 0 0 0 0 0 0 0 0 0 127 0" result="hardAlpha"/>
<feOffset dy="8"/>
<feGaussianBlur stdDeviation="2"/>
<feComposite in2="hardAlpha" operator="out"/>
<feColorMatrix type="matrix" values="0 0 0 0 0 0 0 0 0 0 0 0 0 0 0 0 0 0 0.25 0"/>
<feBlend mode="normal" in2="BackgroundImageFix" result="effect1_dropShadow_677_1882"/>
<feColorMatrix in="SourceAlpha" type="matrix" values="0 0 0 0 0 0 0 0 0 0 0 0 0 0 0 0 0 0 127 0" result="hardAlpha"/>
<feOffset dy="-8"/>
<feGaussianBlur stdDeviation="2"/>
<feComposite in2="hardAlpha" operator="out"/>
<feColorMatrix type="matrix" values="0 0 0 0 0 0 0 0 0 0 0 0 0 0 0 0 0 0 0.25 0"/>
<feBlend mode="normal" in2="effect1_dropShadow_677_1882" result="effect2_dropShadow_677_1882"/>
<feBlend mode="normal" in="SourceGraphic" in2="effect2_dropShadow_677_1882" result="shape"/>
</filter>
</defs>
</svg>
