<svg xmlns="http://www.w3.org/2000/svg" width="41" height="41" viewBox="0 0 41 41" fill="none">
  <g clip-path="url(#clip0_677_1830)">
    <path d="M34.9547 34.8967C42.9378 26.9136 42.9378 13.9704 34.9547 5.98733C26.9716 -1.99577 14.0284 -1.99578 6.0453 5.98731C-1.9378 13.9704 -1.93778 26.9136 6.04532 34.8967C14.0284 42.8798 26.9716 42.8798 34.9547 34.8967Z" fill="#040804"/>
    <path d="M29.8963 15.6837C29.785 15.2667 29.5662 14.8862 29.2619 14.5801C28.9575 14.2741 28.5782 14.0532 28.1619 13.9397C26.6339 13.5268 20.5011 13.5269 20.5011 13.5269C20.5011 13.5269 14.3715 13.5268 12.8419 13.9397C12.4257 14.0533 12.0467 14.2742 11.7426 14.5803C11.4385 14.8863 11.2201 15.2668 11.1091 15.6837C10.6995 17.2229 10.6995 20.4341 10.6995 20.4341C10.6995 20.4341 10.6995 23.6453 11.1091 25.1845C11.2201 25.6014 11.4385 25.9819 11.7426 26.2879C12.0467 26.5939 12.4257 26.8148 12.8419 26.9285C14.3715 27.3413 20.5011 27.3413 20.5011 27.3413C20.5011 27.3413 26.6339 27.3413 28.1619 26.9285C28.5782 26.8149 28.9575 26.5941 29.2619 26.288C29.5662 25.982 29.785 25.6015 29.8963 25.1845C30.3059 23.6453 30.3059 20.4341 30.3059 20.4341C30.3059 20.4341 30.3059 17.2229 29.8963 15.6837Z" fill="#E8E8EE"/>
    <path d="M18.4945 23.3573L23.6177 20.4421L18.4945 17.5269V23.3573Z" fill="#040804"/>
  </g>
  <defs>
    <clipPath id="clip0_677_1830">
      <rect width="40.884" height="40.884" fill="white" transform="translate(0.0579834)"/>
    </clipPath>
  </defs>
</svg>