<svg width="60" height="49" viewBox="0 0 60 49" fill="none" xmlns="http://www.w3.org/2000/svg">
<path d="M25 48.5L0.5 24.5L25 0.5H60L35.4079 24.495L60 48.5H25Z" fill="#040804"/>
<path d="M41.2717 44.5L20.6761 24.5017L41.2717 4.5H50L29.4079 24.495L50 44.4934L41.2717 44.5Z" fill="#BFACB5"/>
<path d="M26.5954 44.4999L5.99993 24.5015L26.5954 4.50652H35.334L14.7385 24.5015L35.334 44.4999H26.5954Z" fill="#BFACB5"/>
<path d="M41.2717 44.5L20.6761 24.5017L41.2717 4.5H50L29.4079 24.495L50 44.4934L41.2717 44.5Z" fill="#EA1429"/>
<path d="M26.5954 44.4999L5.99993 24.5015L26.5954 4.50652H35.334L14.7385 24.5015L35.334 44.4999H26.5954Z" fill="#EA1429"/>
<path d="M41.2717 44.5L20.6761 24.5017L41.2717 4.5H50L29.4079 24.495L50 44.4934L41.2717 44.5Z" fill="#FBEC0A"/>
<path d="M26.5954 44.4999L5.99993 24.5015L26.5954 4.50652H35.334L14.7385 24.5015L35.334 44.4999H26.5954Z" fill="#FBEC0A"/>
</svg>
