
<svg width="60" height="49" viewBox="0 0 60 49" fill="none" xmlns="http://www.w3.org/2000/svg">
<g id="Go Right">
<path id="layer 3" d="M35.5 48.5L60 24.5L35.5 0.5H0.5L25.0921 24.495L0.5 48.5H35.5Z" fill="#040804"/>
<g id="layer 1">
<path d="M19.2283 44.5L39.8239 24.5017L19.2283 4.5H10.5L31.0921 24.495L10.5 44.4934L19.2283 44.5Z" fill="#BFACB5"/>
<path d="M33.9046 44.4999L54.5001 24.5015L33.9046 4.50652H25.166L45.7615 24.5015L25.166 44.4999H33.9046Z" fill="#BFACB5"/>
</g>
<g id="layer 2">
<path d="M19.2283 44.5L39.8239 24.5017L19.2283 4.5H10.5L31.0921 24.495L10.5 44.4934L19.2283 44.5Z" fill="#EA1429"/>
<path d="M33.9046 44.4999L54.5001 24.5015L33.9046 4.50652H25.166L45.7615 24.5015L25.166 44.4999H33.9046Z" fill="#EA1429"/>
</g>
<g id="layer 3_2">
<path d="M19.2283 44.5L39.8239 24.5017L19.2283 4.5H10.5L31.0921 24.495L10.5 44.4934L19.2283 44.5Z" fill="#FBEC0A"/>
<path d="M33.9046 44.4999L54.5001 24.5015L33.9046 4.50652H25.166L45.7615 24.5015L25.166 44.4999H33.9046Z" fill="#FBEC0A"/>
</g>
</g>
</svg>

